<?xml version="1.0" encoding="utf-8"?>
<!-- Generator: Adobe Illustrator 20.1.0, SVG Export Plug-In . SVG Version: 6.00 Build 0)  -->
<svg version="1.1" id="Layer_1" xmlns="http://www.w3.org/2000/svg" xmlns:xlink="http://www.w3.org/1999/xlink" x="0px" y="0px"
	 width="19px" height="19px" viewBox="0 0 19 19" style="enable-background:new 0 0 19 19;" xml:space="preserve">
<style type="text/css">
	.st0{fill:#4C9CE0;}
</style>
<path class="st0" d="M3.5,5h-2C0.7,5,0,4.3,0,3.5v-2C0,0.7,0.7,0,1.5,0h2C4.3,0,5,0.7,5,1.5v2C5,4.3,4.3,5,3.5,5z M1.5,1
	C1.2,1,1,1.2,1,1.5v2C1,3.8,1.2,4,1.5,4h2C3.8,4,4,3.8,4,3.5v-2C4,1.2,3.8,1,3.5,1H1.5z M17,0.6C17,0.8,16.8,1,16.6,1l0,0H7.4
	C7.2,1,7,0.8,7,0.6l0,0V0.4C7,0.2,7.2,0,7.4,0c0,0,0,0,0,0h9.2C16.8,0,17,0.2,17,0.4V0.6z M3.5,12h-2C0.7,12,0,11.3,0,10.5v-2
	C0,7.7,0.7,7,1.5,7h2C4.3,7,5,7.7,5,8.5v2C5,11.3,4.3,12,3.5,12z M1.5,8C1.2,8,1,8.2,1,8.5v2C1,10.8,1.2,11,1.5,11h2
	C3.8,11,4,10.8,4,10.5v-2C4,8.2,3.8,8,3.5,8H1.5z M16,7.6C16,7.8,15.8,8,15.6,8H7.4C7.2,8,7,7.8,7,7.6l0,0V7.4C7,7.2,7.2,7,7.4,7
	l0,0h8.2C15.8,7,16,7.2,16,7.4V7.6z M3.5,19h-2C0.7,19,0,18.3,0,17.5v-2C0,14.7,0.7,14,1.5,14h2C4.3,14,5,14.7,5,15.5v2
	C5,18.3,4.3,19,3.5,19z M1.5,15C1.2,15,1,15.2,1,15.5v2C1,17.8,1.2,18,1.5,18h2C3.8,18,4,17.8,4,17.5v-2C4,15.2,3.8,15,3.5,15H1.5z
	 M14,14.6c0,0.2-0.2,0.4-0.4,0.4H7.4C7.2,15,7,14.8,7,14.6v-0.2C7,14.2,7.2,14,7.4,14h6.2c0.2,0,0.4,0.2,0.4,0.4L14,14.6L14,14.6z
	 M13,3.6C13,3.8,12.8,4,12.6,4H7.4C7.2,4,7,3.8,7,3.6l0,0V3.4C7,3.2,7.2,3,7.4,3l0,0h5.2C12.8,3,13,3.2,13,3.4C13,3.4,13,3.6,13,3.6
	z M19,10.6c0,0.2-0.2,0.4-0.4,0.4l0,0H7.4C7.2,11,7,10.8,7,10.6v-0.2C7,10.2,7.2,10,7.4,10h11.2c0.2,0,0.4,0.2,0.4,0.4l0,0V10.6
	L19,10.6z M16,17.6c0,0.2-0.2,0.4-0.4,0.4l0,0H7.4C7.2,18,7,17.8,7,17.6l0,0v-0.2C7,17.2,7.2,17,7.4,17h0h8.2c0.2,0,0.4,0.2,0.4,0.4
	c0,0,0,0,0,0L16,17.6L16,17.6z"/>
</svg>
