<svg xmlns="http://www.w3.org/2000/svg" width="19" height="19" viewBox="0 0 19 19">
  <defs>
    <style>
      .cls-1 {
        fill: #b4c3d2;
        fill-rule: evenodd;
      }
    </style>
  </defs>
  <path class="cls-1" d="M3.5,5h-2A1.5,1.5,0,0,1,0,3.5v-2A1.5,1.5,0,0,1,1.5,0h2A1.5,1.5,0,0,1,5,1.5v2A1.5,1.5,0,0,1,3.5,5Zm-2-4a0.5,0.5,0,0,0-.5.5v2a0.5,0.5,0,0,0,.5.5h2A0.5,0.5,0,0,0,4,3.5v-2A0.5,0.5,0,0,0,3.5,1h-2ZM17,0.619A0.381,0.381,0,0,1,16.619,1H7.381A0.381,0.381,0,0,1,7,.619V0.381A0.381,0.381,0,0,1,7.381,0h9.239A0.381,0.381,0,0,1,17,.381V0.619ZM3.5,12h-2A1.5,1.5,0,0,1,0,10.5v-2A1.5,1.5,0,0,1,1.5,7h2A1.5,1.5,0,0,1,5,8.5v2A1.5,1.5,0,0,1,3.5,12Zm-2-4a0.5,0.5,0,0,0-.5.5v2a0.5,0.5,0,0,0,.5.5h2A0.5,0.5,0,0,0,4,10.5v-2A0.5,0.5,0,0,0,3.5,8h-2ZM16,7.619A0.381,0.381,0,0,1,15.619,8H7.381A0.381,0.381,0,0,1,7,7.619V7.381A0.381,0.381,0,0,1,7.381,7h8.239A0.381,0.381,0,0,1,16,7.381V7.619ZM3.5,19h-2A1.5,1.5,0,0,1,0,17.5v-2A1.5,1.5,0,0,1,1.5,14h2A1.5,1.5,0,0,1,5,15.5v2A1.5,1.5,0,0,1,3.5,19Zm-2-4a0.5,0.5,0,0,0-.5.5v2a0.5,0.5,0,0,0,.5.5h2A0.5,0.5,0,0,0,4,17.5v-2A0.5,0.5,0,0,0,3.5,15h-2ZM14,14.619a0.381,0.381,0,0,1-.381.381H7.381A0.381,0.381,0,0,1,7,14.619V14.381A0.381,0.381,0,0,1,7.381,14h6.239a0.381,0.381,0,0,1,.381.381v0.239Zm-1-11A0.381,0.381,0,0,1,12.619,4H7.381A0.381,0.381,0,0,1,7,3.619V3.381A0.381,0.381,0,0,1,7.381,3h5.239A0.381,0.381,0,0,1,13,3.381V3.619Zm6,7a0.381,0.381,0,0,1-.381.381H7.381A0.381,0.381,0,0,1,7,10.619V10.381A0.381,0.381,0,0,1,7.381,10H18.619a0.381,0.381,0,0,1,.381.381v0.239Zm-3,7a0.381,0.381,0,0,1-.381.381H7.381A0.381,0.381,0,0,1,7,17.619V17.381A0.381,0.381,0,0,1,7.381,17h8.239a0.381,0.381,0,0,1,.381.381v0.239Z"/>
</svg>
