<svg xmlns="http://www.w3.org/2000/svg" width="70.188" height="70.19" viewBox="0 0 70.188 70.19">
  <defs>
    <style>
      .cls-1 {
        fill: #fff;
        fill-rule: evenodd;
      }
    </style>
  </defs>
  <path id="icon_play" class="cls-1" d="M813.652,3375.36L794.3,3362.12a1.491,1.491,0,0,0-2.334,1.24v26.46a1.48,1.48,0,0,0,2.334,1.23l19.348-13.23A1.485,1.485,0,0,0,813.652,3375.36ZM794.963,3387v-20.82l15.2,10.41Zm4.626-45.5a35.09,35.09,0,1,0,35.087,35.09A35.127,35.127,0,0,0,799.589,3341.5Zm0,67.18a32.1,32.1,0,1,1,32.094-32.09A32.123,32.123,0,0,1,799.589,3408.68Z" transform="translate(-764.5 -3341.5)"/>
</svg>
