<svg xmlns="http://www.w3.org/2000/svg" viewBox="0 0 50 49.75">
  <defs>
    <style>.cls-1 {fill: #4c9ce0;fill-rule: evenodd;}</style>
  </defs>
  <path class="cls-1"
        d="M1024.09,1237.59a15.148,15.148,0,0,0,3.53,9.63,10.778,10.778,0,0,0,17.25.01,15.2,15.2,0,0,0,3.51-9.63v-3.1c2.37-7.21,1.49-13.3.72-14.98a0.01,0.01,0,0,0-.01-0.01,0.106,0.106,0,0,0-.02-0.05c0-.01-0.01-0.01-0.01-0.02s-0.02-.03-0.03-0.04-0.01-.02-0.02-0.03-0.01-.02-0.02-0.03l-0.03-.03a0.038,0.038,0,0,1-.02-0.02l-0.03-.03a0.038,0.038,0,0,1-.02-0.02,0.138,0.138,0,0,1-.04-0.03,0.035,0.035,0,0,1-.02-0.01c-0.02-.01-0.03-0.02-0.05-0.03a0.02,0.02,0,0,0-.02-0.01,0.138,0.138,0,0,1-.04-0.03c-0.01,0-.03-0.01-0.04-0.01s-0.02-.01-0.03-0.02a0.048,0.048,0,0,1-.04-0.01c-0.01,0-.03-0.01-0.04-0.01a0.076,0.076,0,0,1-.04-0.01,0.076,0.076,0,0,1-.04-0.01h-0.08a0.02,0.02,0,0,0-.02-0.01h-0.06a0.02,0.02,0,0,0-.02.01h-0.07a23.36,23.36,0,0,1-7.07-.69c-4.36-.84-8.86-1.7-12.37.7a0.985,0.985,0,0,0-.17-0.02c-3.61,0-6.13,2.87-6.13,6.97,0,3.16,1.4,9.08,1.59,9.9v1.67Zm19.52,8.66a9.117,9.117,0,0,1-14.74,0,13.627,13.627,0,0,1-3.16-8.66v-0.88c0-2.75,1.63-6.47,2.19-7.66a37.824,37.824,0,0,1,12.8.65,24.084,24.084,0,0,1,4.6,1.52l1.46,3.32v3.06A13.647,13.647,0,0,1,1043.61,1246.25Zm-14.98-25.65a0.852,0.852,0,0,0,.23-0.03,0.83,0.83,0,0,0,.71-0.13c2.96-2.15,7.19-1.34,11.28-.56a32.845,32.845,0,0,0,6.09.81c0.29,0,.58-0.01.86-0.03a23.905,23.905,0,0,1-.38,11.38l-0.74-1.68a0.808,0.808,0,0,0-.35-0.38c-0.3-.16-7.44-3.84-19.08-2.41h-0.01c-0.01,0-.03.01-0.04,0.01h-0.04a0.037,0.037,0,0,1-.03.01,0.7,0.7,0,0,0-.27.14,0.571,0.571,0,0,0-.14.13h-0.01c-0.01.01-.01,0.03-0.02,0.04a0.053,0.053,0,0,0-.02.03l-0.02.02a0.106,0.106,0,0,0-.02.05h-0.01a31.7,31.7,0,0,0-1.68,4.19,36.73,36.73,0,0,1-.82-6.17C1024.12,1222.27,1026.39,1220.6,1028.63,1220.6Zm7.62,31.19a11.522,11.522,0,0,1-8.82-4.41,15.393,15.393,0,0,1-3.59-9.79v-1.67a55.793,55.793,0,0,1-1.59-9.9c0-4.25,2.63-7.22,6.38-7.22a0.41,0.41,0,0,1,.11.01c3.59-2.4,8.11-1.53,12.48-.69a23.207,23.207,0,0,0,6.99.69l0.18-.01,0.19,0.03,0.03,0.26,0.07-.24,0.35,0.19,0.09,0.08-0.13.22,0.19-.16,0.14,0.22c0.78,1.71,1.69,7.87-.69,15.14v3.06a15.45,15.45,0,0,1-3.57,9.79A11.524,11.524,0,0,1,1036.25,1251.79Zm-7.62-32.49c-3.46,0-5.88,2.76-5.88,6.72,0,3.15,1.42,9.17,1.59,9.84v1.73a14.923,14.923,0,0,0,3.47,9.47,10.525,10.525,0,0,0,16.87,0,14.913,14.913,0,0,0,3.45-9.46l0.01-3.18c2.35-7.15,1.49-13.16.73-14.8l0.19-.18-0.23.11,0.13-.24-0.18.17-0.05-.04,0.05-.27-0.12.22,0.06-.26-0.13.22-0.13-.04-0.05-.25-0.02.25-0.06-.26-0.01.26a23.722,23.722,0,0,1-7.2-.7c-4.3-.82-8.75-1.68-12.18.67l-0.09.06-0.1-.03C1028.71,1219.31,1028.67,1219.3,1028.63,1219.3Zm7.62,30.95a9.973,9.973,0,0,1-7.57-3.84,13.872,13.872,0,0,1-3.22-8.82v-0.88c0-2.82,1.69-6.66,2.21-7.76l0.06-.13,0.14-.02a38.215,38.215,0,0,1,12.89.66,24.548,24.548,0,0,1,4.65,1.53l0.09,0.04,1.51,3.51v3.06a13.918,13.918,0,0,1-3.21,8.82h0A9.923,9.923,0,0,1,1036.25,1250.25Zm-8.19-20.97c-0.56,1.23-2.1,4.81-2.1,7.43v0.88a13.4,13.4,0,0,0,3.1,8.5,8.873,8.873,0,0,0,14.36,0h0a13.4,13.4,0,0,0,3.09-8.49v-3.01l-1.4-3.18a24.2,24.2,0,0,0-4.47-1.47A37.746,37.746,0,0,0,1028.06,1229.28Zm-3.18,3.91-0.19-.96a38.571,38.571,0,0,1-.82-6.21c0-3.92,2.39-5.67,4.76-5.67a0.777,0.777,0,0,0,.16-0.02l0.07-.02,0.06,0.02a0.585,0.585,0,0,0,.5-0.09c3.06-2.22,7.33-1.4,11.47-.6a28.034,28.034,0,0,0,6.9.77l0.2-.01,0.05,0.19a24.038,24.038,0,0,1-.38,11.51l-0.18.71-1.03-2.35a0.55,0.55,0,0,0-.24-0.26c-0.3-.16-7.39-3.81-18.93-2.38l-0.09.01a0.46,0.46,0,0,0-.18.1,0.284,0.284,0,0,0-.1.09l-0.08.13a30.909,30.909,0,0,0-1.66,4.11Zm7.66-6.2c8.53,0,13.65,2.64,13.9,2.77a1.036,1.036,0,0,1,.47.5l0.44,1a23.824,23.824,0,0,0,.27-10.34,28.716,28.716,0,0,1-6.82-.79c-4.03-.78-8.21-1.58-11.08.52a1.1,1.1,0,0,1-.86.18,1.785,1.785,0,0,1-.23.02c-2.12,0-4.26,1.6-4.26,5.17a32.487,32.487,0,0,0,.63,5.19,29.864,29.864,0,0,1,1.4-3.32l0.13-.2a1.488,1.488,0,0,1,.18-0.17,1.19,1.19,0,0,1,.36-0.17l0.13,0.23-0.05-.25,0.09-.01A43.9,43.9,0,0,1,1032.54,1226.99Zm26.92,30.36a8.8,8.8,0,0,0-4.92-2.87,0.257,0.257,0,0,1-.05-0.02l-6.45-1.29-1.73-2.52-0.03-.03a1.611,1.611,0,0,0-1.1-.61,1.671,1.671,0,0,0-1.22.34,0.01,0.01,0,0,0-.01.01l-7.71,6.35-7.71-6.35a0.01,0.01,0,0,0-.01-0.01,1.671,1.671,0,0,0-1.22-.34,1.611,1.611,0,0,0-1.1.61l-0.03.03-1.73,2.52-6.45,1.29c-0.02.01-.03,0.01-0.05,0.02-1.79.47-4.31,1.34-5.39,2.87a8.238,8.238,0,0,0-1.55,4.75v1.92c0,1.54,2.22,3,4,3h42c1.78,0,4-1.46,4-3v-1.92A8.3,8.3,0,0,0,1059.46,1257.35Zm-14.71-5.38,1.46,2.35-4.91,6.45-1.76-1.55h0l-1.58-1.62Zm-9.32,11.18h1.62a0.66,0.66,0,0,0,.14-0.01l0.81,1.88h-3l0.29-1.88A0.615,0.615,0,0,0,1035.43,1263.15Zm2.42-2.32a0.79,0.79,0,0,1-.8.77h-1.62a0.8,0.8,0,0,1-.81-0.77v-0.46l1.62-1.54,1.61,1.54v0.46h0Zm-10.23-8.86,6.71,5.75-1.5,1.5h0l-1.33,1.25-4.83-6.88ZM1013,1264.02v-2c0-2.51,2.24-4.45,5.35-5.3l6.65-1.7,5.74,7.81a0.788,0.788,0,0,0,.59.31,0.127,0.127,0,0,0,.06.01,0.81,0.81,0,0,0,.57-0.23l1.24-1.18a2.275,2.275,0,0,0,.57.77l-0.77,2.51h-18C1014.11,1265.02,1013,1264.71,1013,1264.02Zm46,0c0,0.69-1.11,1-2,1h-17.42l-0.87-2.51a2.415,2.415,0,0,0,.57-0.77l1.24,1.18a0.793,0.793,0,0,0,.57.23h0.06a0.833,0.833,0,0,0,.59-0.32l6.26-7.81,6.13,1.7c3.11,0.85,4.87,2.79,4.87,5.3v2Z"
        transform="translate(-1011 -1217.25)"/>
</svg>
