<?xml version="1.0" encoding="utf-8"?>
<!-- Generator: Adobe Illustrator 20.1.0, SVG Export Plug-In . SVG Version: 6.00 Build 0)  -->
<svg version="1.1" id="Layer_1" xmlns="http://www.w3.org/2000/svg" xmlns:xlink="http://www.w3.org/1999/xlink" x="0px" y="0px"
	 width="16px" height="15px" viewBox="0 0 16 15" style="enable-background:new 0 0 16 15;" xml:space="preserve">
<style type="text/css">
	.st0{fill:#4C9CE0;}
</style>
<g>
	<g>
		<path class="st0" d="M6.6,11.4l-0.2-0.1c-0.2-0.1-0.4-0.1-0.8-0.2c-0.1,0-0.2,0-0.3,0.1C4,11.9,2.6,12.6,1.7,13
			c0.1-0.2,0.3-0.4,0.4-0.5c1.1-1.4,1.3-1.7,1.3-2.1c0-0.1-0.1-0.3-0.2-0.4C1.8,9,1,7.7,1,6.2C1,3.4,4.2,1,8,1c3.8,0,7,2.4,7,5.2
			c0,0.3,0.2,0.5,0.5,0.5c0.3,0,0.5-0.2,0.5-0.5C16,2.8,12.4,0,8,0C3.6,0,0,2.8,0,6.2c0,1.6,0.8,3.2,2.2,4.4c-0.2,0.3-0.7,0.9-1,1.3
			C0.2,13.3-0.1,13.6,0,14c0,0.1,0.1,0.3,0.3,0.4c0.1,0,0.1,0.1,0.3,0.1c0.4,0,1.5-0.4,5-2.3c0.2,0,0.3,0.1,0.5,0.1l0.2,0.1
			c0.3,0.1,0.5-0.1,0.6-0.3C7,11.8,6.9,11.5,6.6,11.4z M15.4,13.2c-0.1-0.2-0.4-0.6-0.5-0.8c0.7-0.6,1.1-1.4,1.1-2.2
			c0-1.8-1.9-3.3-4.2-3.3c-2.3,0-4.2,1.5-4.2,3.3c0,1.8,1.8,3.2,4,3.3c0.4,0.4,1.7,1.2,3.8,1.5c0,0,0,0,0.1,0c0.2,0,0.4-0.1,0.4-0.3
			C16.1,14.4,16,14.3,15.4,13.2z M12.1,12.6c-0.1-0.1-0.2-0.1-0.4-0.1c-1.7,0-3.2-1-3.2-2.3c0-1.3,1.4-2.3,3.2-2.3
			c1.7,0,3.2,1,3.2,2.3c0,0.6-0.3,1.2-0.9,1.6c-0.4,0.3-0.2,0.7,0.5,1.9c0,0,0,0.1,0,0.1C12.9,13.4,12.2,12.7,12.1,12.6z"/>
	</g>
</g>
</svg>
