<?xml version="1.0" encoding="utf-8"?>
<!-- Generator: Adobe Illustrator 20.1.0, SVG Export Plug-In . SVG Version: 6.00 Build 0)  -->
<svg version="1.1" id="Layer_1" xmlns="http://www.w3.org/2000/svg" xmlns:xlink="http://www.w3.org/1999/xlink" x="0px" y="0px"
	 width="17px" height="18px" viewBox="0 0 17 18" style="enable-background:new 0 0 17 18;" xml:space="preserve">
<style type="text/css">
	.st0{fill:#C2C5CC;}
</style>
<g>
	<path class="st0" d="M14,2V0h-2v2H5V0H3v2H0l0,4.6L0,18h16h1v-1V2H14z M16,17H1V7h15V17z M16,6H1V3h2v2h2V3h7v2h2V3h2V6z"/>
	<path class="st0" d="M12,16h3V8h-3h-1H2v8h9H12z M12,9h2v6h-2V9z M3,9h8v6H3V9z"/>
</g>
</svg>
