<?xml version="1.0" encoding="utf-8"?>
<!-- Generator: Adobe Illustrator 20.1.0, SVG Export Plug-In . SVG Version: 6.00 Build 0)  -->
<svg version="1.1" id="Layer_1" xmlns="http://www.w3.org/2000/svg" xmlns:xlink="http://www.w3.org/1999/xlink" x="0px" y="0px"
	 width="19px" height="25px" viewBox="0 0 19 25" style="enable-background:new 0 0 19 25;" xml:space="preserve">
<style type="text/css">
	.st0{fill:#4C9CE0;}
</style>
<path class="st0" d="M2.9,4h3c0.3-0.1,0.5-0.3,0.4-0.6C6.3,3.2,6.1,3,5.9,3h-3C2.6,3.1,2.4,3.3,2.5,3.6C2.5,3.8,2.7,4,2.9,4z M2.9,6
	h4.8C7.9,5.9,8.1,5.7,8,5.4C8,5.2,7.8,5,7.6,5H2.9C2.6,5.1,2.4,5.3,2.5,5.6C2.5,5.8,2.7,6,2.9,6z M6.4,9.5c0,0.2,0.2,0.5,0.4,0.5
	h5.2c0.3-0.1,0.5-0.3,0.4-0.6c0-0.2-0.2-0.4-0.4-0.4H6.8C6.5,9,6.4,9.3,6.4,9.5z M15.8,11h-13c-0.3,0.1-0.5,0.3-0.4,0.6
	c0,0.2,0.2,0.4,0.4,0.4h13c0.3-0.1,0.5-0.3,0.4-0.6C16.2,11.2,16,11,15.8,11z M16,19H3.2c-0.3,0.1-0.5,0.3-0.4,0.6
	C2.8,19.8,3,20,3.2,20H16c0.3-0.1,0.5-0.3,0.4-0.6C16.4,19.2,16.2,19,16,19L16,19z M12.4,21H3.2c-0.3,0.1-0.5,0.3-0.4,0.6
	C2.8,21.8,3,22,3.2,22h9.3c0.3-0.1,0.5-0.3,0.4-0.6C12.8,21.2,12.6,21,12.4,21L12.4,21z M15.8,13h-13c-0.3,0.1-0.5,0.3-0.4,0.6
	c0,0.2,0.2,0.4,0.4,0.4h13c0.3-0.1,0.5-0.3,0.4-0.6C16.2,13.2,16,13,15.8,13L15.8,13z M15.8,15h-13c-0.3,0.1-0.5,0.3-0.4,0.6
	c0,0.2,0.2,0.4,0.4,0.4h13c0.3-0.1,0.5-0.3,0.4-0.6C16.2,15.2,16,15,15.8,15L15.8,15z M18.9,4.8l-4.8-4.7C14,0,13.9,0,13.8,0H1.3
	C0.6,0,0,0.6,0,1.3v22.2c-0.1,0.8,0.4,1.4,1.2,1.5c0.1,0,0.3,0,0.4,0h15.9c0.7,0.1,1.4-0.3,1.5-1c0-0.2,0-0.3,0-0.5V5.1
	C19,5,19,4.9,18.9,4.8z M14,1.5L17.5,5H15c-0.5,0.1-0.9-0.3-1-0.8c0-0.1,0-0.2,0-0.2V1.5z M17,24H2c-0.5,0.1-0.9-0.3-1-0.8
	c0-0.1,0-0.2,0-0.2V2C0.9,1.5,1.2,1.1,1.7,1C1.8,1,1.9,1,2,1h11v3.2C13,5.2,13.7,6,14.7,6H18v17c0.1,0.5-0.3,0.9-0.7,1
	C17.2,24,17.1,24,17,24z"/>
</svg>
