<svg xmlns="http://www.w3.org/2000/svg" width="19" height="25" viewBox="0 0 19 25">
  <defs>
    <style>
      .cls-1 {
        fill: #b4c3d2;
        fill-rule: evenodd;
      }
    </style>
  </defs>
  <path class="cls-1" d="M2.876,4H5.9a0.511,0.511,0,0,0,0-1H2.876A0.511,0.511,0,0,0,2.876,4Zm0,2H7.627a0.511,0.511,0,0,0,0-1H2.876A0.511,0.511,0,0,0,2.876,6ZM6.358,9.5a0.5,0.5,0,0,0,.4.5h5.184a0.511,0.511,0,0,0,0-1H6.763A0.5,0.5,0,0,0,6.358,9.5ZM15.835,11H2.876a0.511,0.511,0,0,0,0,1H15.835A0.511,0.511,0,0,0,15.835,11Zm0.174,8H3.163a0.511,0.511,0,0,0,0,1H16.008A0.511,0.511,0,0,0,16.008,19Zm-3.571,2H3.163a0.511,0.511,0,0,0,0,1h9.274A0.511,0.511,0,0,0,12.437,21Zm3.4-8H2.876a0.511,0.511,0,0,0,0,1H15.835A0.511,0.511,0,0,0,15.835,13Zm0,2H2.876a0.511,0.511,0,0,0,0,1H15.835A0.511,0.511,0,0,0,15.835,15ZM18.881,4.818l-4.764-4.7A0.408,0.408,0,0,0,13.831,0H1.272A1.265,1.265,0,0,0,0,1.255V23.478A1.378,1.378,0,0,0,1.639,25H17.521A1.279,1.279,0,0,0,19,23.478V5.1A0.4,0.4,0,0,0,18.881,4.818ZM14,1.5L17.542,5H15a0.892,0.892,0,0,1-1-1V1.5ZM17,24H2a0.888,0.888,0,0,1-1-1V2A0.867,0.867,0,0,1,2,1H13V4.25A1.718,1.718,0,0,0,14.667,6H18V23A0.878,0.878,0,0,1,17,24Z"/>
</svg>
