<svg xmlns="http://www.w3.org/2000/svg" width="18" height="18" viewBox="0 0 18 18">
  <defs>
    <style>
      .cls-1 {
        fill: #b4c3d2;
        fill-rule: evenodd;
      }
    </style>
  </defs>
  <path class="cls-1" d="M17.757,14.72a2.28,2.28,0,0,0-1.771-1.583c-3.8-.941-4.531-2.27-4.667-2.647a3.769,3.769,0,0,0,.8-0.673c1.672-1.858,1.392-5.042,1.363-5.342a4.411,4.411,0,0,0-2-3.821A4.727,4.727,0,0,0,9.087,0H8.9A4.781,4.781,0,0,0,6.509.653a4.406,4.406,0,0,0-2,3.821c-0.029.3-.309,3.484,1.363,5.342a3.786,3.786,0,0,0,.8.673,1.785,1.785,0,0,1-.42.6,8.731,8.731,0,0,1-4.255,2.047A2.28,2.28,0,0,0,.223,14.72a3.835,3.835,0,0,0-.231,1.459v1.274A0.55,0.55,0,0,0,.548,18H17.44A0.553,0.553,0,0,0,18,17.448V16.175A4.054,4.054,0,0,0,17.757,14.72ZM5.611,4.571c0-.012,0-0.024,0-0.032C5.763,1.343,8.164,1.1,8.893,1.1H9.087c0.733,0,3.13.247,3.279,3.444a0.078,0.078,0,0,0,0,.032c0,0.028.3,2.977-1.087,4.519a2.927,2.927,0,0,1-2.274.929H8.968A2.911,2.911,0,0,1,6.7,9.09C5.306,7.549,5.607,4.6,5.611,4.571ZM1.1,16.179c0-1.16.14-1.728,1.162-1.983A10.263,10.263,0,0,0,7.04,11.852a2.873,2.873,0,0,0,.643-0.921,4.835,4.835,0,0,0,1.24.174H9.066a4.811,4.811,0,0,0,1.24-.174,2.914,2.914,0,0,0,.643.921,10.264,10.264,0,0,0,4.774,2.339c1.021,0.255,1.162.823,1.162,1.983V17H1.1V16.179Z"/>
</svg>
