<?xml version="1.0" encoding="utf-8"?>
<!-- Generator: Adobe Illustrator 20.1.0, SVG Export Plug-In . SVG Version: 6.00 Build 0)  -->
<svg version="1.1" id="Layer_1" xmlns="http://www.w3.org/2000/svg" xmlns:xlink="http://www.w3.org/1999/xlink" x="0px" y="0px"
	 width="18px" height="18px" viewBox="0 0 18 18" style="enable-background:new 0 0 18 18;" xml:space="preserve">
<style type="text/css">
	.st0{fill:#4C9CE0;}
</style>
<path class="st0" d="M17.8,14.7c-0.2-0.8-0.9-1.4-1.8-1.6c-3.8-0.9-4.5-2.3-4.7-2.6c0.3-0.2,0.6-0.4,0.8-0.7c1.7-1.9,1.4-5,1.4-5.3
	c0-1.5-0.7-3-2-3.8C10.8,0.2,9.9,0,9.1,0H8.9C8.1,0,7.2,0.2,6.5,0.7c-1.3,0.8-2,2.3-2,3.8c0,0.3-0.3,3.5,1.4,5.3
	c0.2,0.3,0.5,0.5,0.8,0.7c-0.1,0.2-0.2,0.4-0.4,0.6c-1.2,1.1-2.7,1.8-4.3,2c-0.8,0.2-1.5,0.8-1.8,1.6c-0.2,0.5-0.2,1-0.2,1.5v1.3
	C0,17.8,0.2,18,0.5,18c0,0,0,0,0,0h16.9c0.3,0,0.6-0.2,0.6-0.5c0,0,0,0,0,0v-1.3C18,15.7,17.9,15.2,17.8,14.7z M5.6,4.6
	C5.6,4.6,5.6,4.5,5.6,4.6c0.2-3.2,2.6-3.5,3.3-3.5h0.2c0.7,0,3.1,0.2,3.3,3.4c0,0,0,0,0,0c0,0,0.3,3-1.1,4.5c-0.6,0.6-1.4,1-2.3,0.9
	h0c-0.9,0-1.7-0.3-2.3-0.9C5.3,7.5,5.6,4.6,5.6,4.6z M1.1,16.2c0-1.2,0.1-1.7,1.2-2C4,13.8,5.7,13,7,11.9c0.3-0.3,0.5-0.6,0.6-0.9
	c0.4,0.1,0.8,0.2,1.2,0.2h0.1c0.4,0,0.8-0.1,1.2-0.2c0.2,0.3,0.4,0.7,0.6,0.9c1.4,1.2,3,2,4.8,2.3c1,0.3,1.2,0.8,1.2,2V17H1.1V16.2z
	"/>
</svg>
