<svg xmlns="http://www.w3.org/2000/svg" width="20" height="20" viewBox="0 0 20 20">
  <defs>
    <style>
      .cls-1 {
        fill: #4c9ce0;
        fill-rule: evenodd;
      }
    </style>
  </defs>
  <path id="Forma_1" data-name="Forma 1" class="cls-1" d="M3,0H17a3,3,0,0,1,3,3V17a3,3,0,0,1-3,3H3a3,3,0,0,1-3-3V3A3,3,0,0,1,3,0ZM15.791,6.743l-0.555-.588a0.568,0.568,0,0,0-.833,0L8.583,12.32,5.534,9.092a0.568,0.568,0,0,0-.833,0L4.146,9.68a0.652,0.652,0,0,0,0,.882l4.019,4.255a0.558,0.558,0,0,0,.829,0l6.792-7.191A0.646,0.646,0,0,0,15.791,6.743Z"/>
</svg>
