<?xml version="1.0" encoding="utf-8"?>
<!-- Generator: Adobe Illustrator 20.1.0, SVG Export Plug-In . SVG Version: 6.00 Build 0)  -->
<svg version="1.1" id="Layer_1" xmlns="http://www.w3.org/2000/svg" xmlns:xlink="http://www.w3.org/1999/xlink" x="0px" y="0px"
	 width="14px" height="14px" viewBox="0 0 14 14" style="enable-background:new 0 0 14 14;" xml:space="preserve">
<style type="text/css">
	.st0{fill:#FFFFFF;}
</style>
<path class="st0" d="M7,0C3.1,0,0,3.1,0,7s3.1,7,7,7s7-3.1,7-7S10.9,0,7,0z M9.1,7.9l1.8,1.8c0.1,0.1,0.1,0.2,0,0.2l-1,1
	c0,0-0.1,0.1-0.1,0H9.7L7,8.2l-2.7,2.7H4.2H4.1l-1-1l0,0C3,9.8,3,9.7,3.1,9.6L5.8,7L3.1,4.3l0,0C3,4.2,3,4.1,3.1,4.1l1-1
	c0-0.1,0.1-0.1,0.2,0L7,5.7L9.7,3h0.1h0.1l1,1c0.1,0.1,0.1,0.2,0,0.2L8.2,7L9.1,7.9z"/>
</svg>
