<svg id="Isolation_Mode" data-name="Isolation Mode" xmlns="http://www.w3.org/2000/svg" viewBox="0 0 364.45 371.86"><defs><style>.cls-1{fill:#ea4335;}.cls-2{fill:#fbbc05;}.cls-3{fill:#4285f4;}.cls-4{fill:#34a853;}</style></defs><title>gplus</title><path class="cls-1" d="M142.9,24.2a188.36,188.36,0,0,1,125.3,1.1,180.76,180.76,0,0,1,59.9,37.1C322.3,68.7,316,74.6,310,80.7l-34.2,34.2a101.31,101.31,0,0,0-40.1-23.6,109.81,109.81,0,0,0-54.6-2.2A111.15,111.15,0,0,0,125.5,120a115.41,115.41,0,0,0-27,43.9c-20.3-15.8-40.6-31.5-61-47.3C59,73.6,97.6,39.7,142.9,24.2Z" transform="translate(-17.75 -14.02)"/><path class="cls-2" d="M21.4,163.2a185.51,185.51,0,0,1,16.2-46.8c20.3,15.8,40.6,31.5,61,47.3a112.2,112.2,0,0,0,0,72.4q-30.45,23.7-60.9,47.3A185.08,185.08,0,0,1,21.4,163.2Z" transform="translate(-17.75 -14.02)"/><path class="cls-3" d="M203.7,165.1h175c5.8,32.7,4.5,66.8-4.7,98.8-8.5,29.3-24.6,56.5-47.1,77.2l-59.1-45.9A87.61,87.61,0,0,0,305,237.7H203.6Q203.75,201.4,203.7,165.1Z" transform="translate(-17.75 -14.02)"/><path class="cls-4" d="M37.5,283.5q30.45-23.55,60.9-47.3A115.59,115.59,0,0,0,141,293.3a110.81,110.81,0,0,0,41.4,17.9c14.6,3,29.7,2.6,44.4.1a106.55,106.55,0,0,0,41-16.2L326.9,341c-21.3,19.7-48,33.1-76.2,39.6-31.2,7.1-64.2,7.3-95.2-1a183.79,183.79,0,0,1-67.6-34.1A187.26,187.26,0,0,1,37.5,283.5Z" transform="translate(-17.75 -14.02)"/></svg>