<svg id="Layer_1" data-name="Layer 1" xmlns="http://www.w3.org/2000/svg" width="12" height="12" viewBox="0 0 364.59 364.59"><defs><style>.cls-1{fill:#0084b1;}.cls-2{fill:#fff;}</style></defs><title>footer-ln</title><rect class="cls-1" width="364.59" height="364.59"/><path class="cls-2" d="M85.8,55.37A30.64,30.64,0,0,1,116.24,86c0,17.57-14.62,30.81-30.64,30.43-16.25.33-30.52-13.24-30.52-30.55A30.66,30.66,0,0,1,85.8,55.37Zm0,0" transform="translate(0 0)"/><path class="cls-2" d="M103.54,309.18H67.77a8.41,8.41,0,0,1-8.41-8.41V148.15a8.41,8.41,0,0,1,8.41-8.41h35.77a8.41,8.41,0,0,1,8.41,8.41V300.77a8.41,8.41,0,0,1-8.41,8.41Zm0,0" transform="translate(0 0)"/><path class="cls-2" d="M309.51,193.34a57.93,57.93,0,0,0-57.94-57.93h-9.18A51.56,51.56,0,0,0,197.3,162l-.48-.06V143.23a3.49,3.49,0,0,0-3.49-3.49H148.7a3.49,3.49,0,0,0-3.49,3.49V305.69a3.49,3.49,0,0,0,3.49,3.49h45.61a3.49,3.49,0,0,0,3.49-3.49V211.84A29.75,29.75,0,0,1,227,182a29.51,29.51,0,0,1,29.84,29.5v94.25a3.49,3.49,0,0,0,3.49,3.49H306a3.48,3.48,0,0,0,3.49-3.49V193.34Zm0,0" transform="translate(0 0)"/></svg>