<svg id="Layer_1" data-name="Layer 1" xmlns="http://www.w3.org/2000/svg" viewBox="0 0 50 38"><defs><style>.cls-1{fill:#c7c9d3;}</style></defs><title>Artboard 1</title><path class="cls-1" d="M38.86,8H4.29A4.35,4.35,0,0,0,0,12.49V32.37C0,36,1.93,38,4.29,38H38.86C42.44,38,44,35.4,44,32.37V12.49C44,9.94,42,8,38.86,8ZM42,32c0,2.2-1.17,4-3.47,4H5.1C3,36,2,33.83,2,32.13V12.87C2,11.17,2.65,10,4.61,10H38c2.1,0,4,.72,4,3.39Zm-28.33-8.4a4.29,4.29,0,1,0-4.29-4.29A4.29,4.29,0,0,0,13.67,23.57Zm0-6.72a2.44,2.44,0,1,1-2.44,2.44A2.44,2.44,0,0,1,13.67,16.85Zm0,8.44a7.15,7.15,0,0,0-6.84,5.08A1.34,1.34,0,0,0,8,32.14H19.33a1.34,1.34,0,0,0,1.14-1.78A7,7,0,0,0,13.71,25.29Zm5,5.14h-10a.17.17,0,0,1-.14-.24A5.63,5.63,0,0,1,13.71,27a5.53,5.53,0,0,1,5.1,3.19A.17.17,0,0,1,18.67,30.43ZM45.5,0H12C9.88,0,8,1.5,8,6h2.12s-.19-4,2.75-4H45.33C47.85,2,48,3.78,48,5.48V25.37c0,1.73.22,2.63-.82,2.63H46v2h1.43C50,30,50,27.91,50,25.37V5.48C50,2.08,49.52,0,45.5,0ZM35.14,16H26.86a.86.86,0,0,0-.86.86v.29a.86.86,0,0,0,.86.86h8.29a.86.86,0,0,0,.86-.86v-.29A.86.86,0,0,0,35.14,16Zm0,6H26.86a.86.86,0,0,0-.86.86v.29a.86.86,0,0,0,.86.86h8.29a.86.86,0,0,0,.86-.86v-.29A.86.86,0,0,0,35.14,22Zm0,6H26.86a.86.86,0,0,0-.86.86v.29a.86.86,0,0,0,.86.86h8.29a.86.86,0,0,0,.86-.86v-.29A.86.86,0,0,0,35.14,28Z"/></svg>