<svg xmlns="http://www.w3.org/2000/svg" width="53" height="53" viewBox="0 0 53 53">
  <defs>
    <style>
      .cls-1 {
        fill: #4c9ce0;
        fill-rule: evenodd;
      }
    </style>
  </defs>
  <path id="Vector_Smart_Object" data-name="Vector Smart Object" class="cls-1" d="M3,32V49c0,0.49.571,0.44,1.056,0.44S5,49.49,5,49V32c0-.49-0.459-0.428-0.944-0.428S3,31.51,3,32ZM51.885,50.98H0.958c-0.485,0,.116.515,0.116,1s-0.6,1-.116,1H51.885A1.014,1.014,0,0,0,51.885,50.98ZM13.733,17.2a0.875,0.875,0,0,0,1.226-.2,14.525,14.525,0,0,1,11.96-5.709A14.525,14.525,0,0,1,38.877,17a0.816,0.816,0,1,0,1.239-1.031c-0.184-.26-3.258-6.156-12.2-6.547V5.767H29.9c0.994,0,.994-2.009,0-2.009H27.913V0.743c0-1-1.988-1-1.988,0V3.758H23.937c-0.994,0-.994,2.009,0,2.009h1.988V9.422c-8.946.391-12.02,6.287-12.2,6.547A0.879,0.879,0,0,0,13.733,17.2ZM13,38.672v-7.1c0-.49-0.029-0.687-0.514-0.687H10.617C8.679,30.886,7,32.042,7,34v4c0,0.49.5,1.928,0.982,1.928h4.506C12.973,39.928,13,39.162,13,38.672Zm-1.988-.754H9.026V34.235a1.961,1.961,0,0,1,1.988-1.775v5.459Zm30.334-7.033c-0.485,0-.513.2-0.513,0.687v7.1c0,0.49.029,1.256,0.513,1.256h4.506A1.184,1.184,0,0,0,47,39V34c0-1.958-2.837-3.114-4.774-3.114H41.348ZM45,34v4H43V33C43.994,33,45,33.021,45,34Zm4-2V49c0,0.49.3,0.44,0.781,0.44S51,49.49,51,49V32c0-.49-0.734-0.428-1.219-0.428S49,31.51,49,32ZM1.465,30.536a0.868,0.868,0,0,0,.486.149,0.725,0.725,0,0,0,.731-0.144,12.436,12.436,0,0,1,9.806-4.679h2.5v21.1H11.014c-0.994,0-1.988,2.009-.994,2.009h32.8c0.994,0,.994-2.009,0-2.009L39,47V26l2.348-.138a12.268,12.268,0,0,1,9.807,4.68,0.775,0.775,0,0,0,.731.269,0.96,0.96,0,0,0,.486-0.212,0.777,0.777,0,0,0,.243-1.128,13.964,13.964,0,0,0-11.267-5.617L39,24V19a1.044,1.044,0,0,0-1.147-.74A0.747,0.747,0,0,0,37,19V47l-3.123-.039v-7.4c0-3.915-3.085-7.67-6.958-7.67s-6.958,3.755-6.958,7.67v7.4H16.978V20.035a1,1,0,0,0-1.988,0v3.818h-2.5A13.977,13.977,0,0,0,1.221,29.438,0.743,0.743,0,0,0,1.465,30.536ZM27.913,42.942a1.936,1.936,0,0,0,.994-1,0.819,0.819,0,0,0-.994-1V33.9c2.982,0.425,3.976,3.027,3.976,5.66v7.4H27.913V42.942ZM21.949,39.56c0-2.633.994-4.82,3.976-5.245v6.618a0.819,0.819,0,0,0-.994,1,0.927,0.927,0,0,0,.994,1.172v3.852H21.949v-7.4Zm4.823-22.741a4.167,4.167,0,1,0,4.123,4.167A4.15,4.15,0,0,0,26.772,16.819Zm0,6.429a2.261,2.261,0,1,1,2.237-2.261A2.252,2.252,0,0,1,26.772,23.248Z"/>
</svg>
