<?xml version="1.0" encoding="utf-8"?>
<!-- Generator: Adobe Illustrator 20.1.0, SVG Export Plug-In . SVG Version: 6.00 Build 0)  -->
<svg version="1.1" id="Layer_1" xmlns="http://www.w3.org/2000/svg" xmlns:xlink="http://www.w3.org/1999/xlink" x="0px" y="0px"
	 viewBox="0 0 15 16" style="enable-background:new 0 0 15 16;" xml:space="preserve">
<style type="text/css">
	.st0{fill:#D1D3DB;}
</style>
<path class="st0" d="M15,14.8L9.9,9.6c0.9-1.1,1.4-2.4,1.4-3.8C11.3,2.6,8.8,0,5.6,0C2.5,0,0,2.6,0,5.8c0,3.2,2.5,5.7,5.6,5.8
	c1.1,0,2.2-0.3,3.2-1L14,16L15,14.8z M1.2,5.8c0-2.5,1.9-4.5,4.4-4.5c2.5,0,4.4,2.1,4.4,4.5c0,2.5-1.9,4.5-4.4,4.5
	C3.2,10.3,1.2,8.3,1.2,5.8z"/>
</svg>
