<svg xmlns="http://www.w3.org/2000/svg" width="36" height="53.656" viewBox="0 0 36 53.656">
  <defs>
    <style>
      .cls-1 {
        fill: #4c9ce0;
        fill-rule: evenodd;
      }
    </style>
  </defs>
  <path class="cls-1" d="M33.831,15.029S33.513,4.28,33.5,4.151a2.012,2.012,0,0,0-1.257-1.625L29.056,1.29a1.968,1.968,0,0,0-2.547,1.122L24.168,8.045A2.851,2.851,0,0,0,23,7.839V5.715a5.011,5.011,0,1,0-10,0V7.839a3.124,3.124,0,0,0-1.2.207L9.516,2.412A2.038,2.038,0,0,0,8.429,1.324,2.012,2.012,0,0,0,6.9,1.29L3.7,2.526a1.98,1.98,0,0,0-1.251,1.6c-0.016.136-.318,10.9-0.318,10.9A15.057,15.057,0,0,0,0,22.775V50.7a3.319,3.319,0,0,0,3.315,3.315h29.3A3.377,3.377,0,0,0,36,50.7V22.776A15.082,15.082,0,0,0,33.831,15.029Zm-1.857-2.454a15.249,15.249,0,0,0-1.1-1.089l0.992-2.559ZM28.14,3.045a0.217,0.217,0,0,1,.281-0.124l3.185,1.235a0.216,0.216,0,0,1,.124.281l-2.293,5.911A15.124,15.124,0,0,0,26,8.554ZM17.967,2.12a3.6,3.6,0,0,1,3.548,3.022,5.328,5.328,0,0,0-7.095-.011A3.6,3.6,0,0,1,17.967,2.12Zm3.268,5.514c-0.149,0-6.386,0-6.536,0A3.593,3.593,0,0,1,21.234,7.634ZM4.2,4.272a0.213,0.213,0,0,1,.12-0.114L7.51,2.922a0.217,0.217,0,0,1,.281.124L9.927,8.555a15.118,15.118,0,0,0-3.433,1.8L4.2,4.438A0.213,0.213,0,0,1,4.2,4.272ZM4.065,8.927l0.993,2.56a15.33,15.33,0,0,0-1.1,1.09ZM34.091,50.578a1.388,1.388,0,0,1-1.473,1.44H3.315A1.173,1.173,0,0,1,2,50.7V22.776c0-7.388,5.76-12.758,13.149-12.758h5.636C28.173,10.018,34,15.388,34,22.776V50.7ZM32,31.579c0-1.415-1.585-2.561-3-2.561H7c-1.415,0-3,1.147-3,2.561V47.456a2.561,2.561,0,0,0,2.561,2.562H29.439A2.561,2.561,0,0,0,32,47.456V31.579ZM28.839,48.018H7.095a1.276,1.276,0,0,1-1.094-1v-10H26v2h2v-2h2v10A1.357,1.357,0,0,1,28.839,48.018ZM30,31.532v3.486H6V31.532c0-.448.647-0.514,1.095-0.514H28.839C29.286,31.018,30,31.084,30,31.532ZM24,13.018H12v5H24v-5Zm-2,3H14v-1h8v1Z" transform="translate(0 -0.375)"/>
</svg>
