<svg id="Layer_1" data-name="Layer 1" xmlns="http://www.w3.org/2000/svg" width="12" height="12" viewBox="0 0 364.59 364.59"><defs><style>.cls-1{fill:#50abf1;}.cls-2{fill:#fff;}</style></defs><title>footer-tw</title><rect class="cls-1" width="364.59" height="364.59"/><path class="cls-2" d="M48.3,270.26A157,157,0,0,0,289.14,137.61q0-3.25-.13-6.45c3.14-2.47,22.53-18,27.28-28,0,0-15.75,6.54-31.16,8.08H285l.08-.05c1.42-1,21.27-14.47,24-30.57a191.11,191.11,0,0,1-26.73,11.14c-2.58.86-5.29,1.7-8.07,2.48a55.07,55.07,0,0,0-93.85,50.09c-4.25-.17-69-3.81-113-57.14,0,0-26.32,35.93,15.69,72.88,0,0-12.77-.51-23.79-7.09,0,0-4,43.53,43.52,54.66,0,0-9.36,3.54-24.29,1,0,0,8.35,35.18,50.62,38.46,0,0-33.42,30.19-80.87,23.11Zm0,0" transform="translate(0 0)"/></svg>