<svg id="Layer_1" data-name="Layer 1" xmlns="http://www.w3.org/2000/svg" width="12" height="12" viewBox="0 0 364.59 364.59"><defs><style>.cls-1{fill:#dc472e;}.cls-2{fill:#fff;}</style></defs><title>footer-yt</title><rect class="cls-1" width="364.59" height="364.59"/><path class="cls-2" d="M210.6,233.39a11.46,11.46,0,0,0-.91-4,4.36,4.36,0,0,0-3.92-2.68,6.84,6.84,0,0,0-5.35,2,3.58,3.58,0,0,0-.9,1.34l0,43.18v1.06s.37.5.42.56a8.56,8.56,0,0,0,4.57,2.8c3.07.63,5.24-.65,5.84-3.5a10.46,10.46,0,0,0,.24-2.18c0-12.86,0-25.7,0-38.55Zm0,0a11.46,11.46,0,0,0-.91-4,4.36,4.36,0,0,0-3.92-2.68,6.84,6.84,0,0,0-5.35,2,3.58,3.58,0,0,0-.9,1.34l0,43.18v1.06s.37.5.42.56a8.56,8.56,0,0,0,4.57,2.8c3.07.63,5.24-.65,5.84-3.5a10.46,10.46,0,0,0,.24-2.18c0-12.86,0-25.7,0-38.55ZM259,168.27q-76.65-1.64-153.32,0a32.61,32.61,0,0,0-31.91,32.61v79.81a32.62,32.62,0,0,0,31.91,32.62q76.65,1.64,153.32,0a32.62,32.62,0,0,0,31.91-32.62V200.88A32.62,32.62,0,0,0,259,168.27ZM120.64,288H105.9v-83.3H90.65V190.72h45.28v13.91H120.64Zm52.73-34.58V288h-13v-7.91c-.47.5-.74.78-1,1.06a24,24,0,0,1-10.05,7.21,12.22,12.22,0,0,1-6.11.55,7.52,7.52,0,0,1-5.91-4.7,18.28,18.28,0,0,1-1.35-7.53c0-9.52,0-59.91,0-60.39h13c0,.44.07,36.61.08,54.25a14.46,14.46,0,0,0,.2,2.88,3.18,3.18,0,0,0,4.58,2.55,14.19,14.19,0,0,0,6.3-4.93,2.26,2.26,0,0,0,.25-1.32v-53.5l13.05,0ZM223,281.06c-1.75,5.25-5.59,7.92-11.11,7.86a14.74,14.74,0,0,1-11.13-5.08l-1.26-1.34V288H186.45V190.72h13.07v32a13,13,0,0,1,1.41-2.23,15,15,0,0,1,7.53-4.79c5-1.25,10.8.3,13.55,6.16a25.26,25.26,0,0,1,2.08,10.92q0,20.38,0,40.77a23.85,23.85,0,0,1-1.08,7.5Zm48.28-2.74c-2.27,6.63-6.95,10.31-13.81,11.32-4.26.63-8.47.54-12.47-1.27-5.46-2.46-8.56-6.92-9.89-12.59a37.87,37.87,0,0,1-1-8.12c-.11-10.65-.05-21.3,0-32,0-5.57,1.34-10.7,5.15-15,4.35-4.87,9.92-6.69,16.28-6.28a22.6,22.6,0,0,1,5.68,1c6.18,2,9.49,6.66,10.79,12.81a38.49,38.49,0,0,1,.72,7.25c.11,5.68,0,18.2,0,18.2h-25v17.95a5.83,5.83,0,1,0,11.66,0v-9.22H272.8s.2,10.89-1.5,15.85Zm-11.94-45.78a5.83,5.83,0,1,0-11.66,0v10.07h11.66Zm-49.66-3.21a4.36,4.36,0,0,0-3.92-2.68,6.84,6.84,0,0,0-5.35,2,3.58,3.58,0,0,0-.9,1.34l0,43.18v1.06s.37.5.42.56a8.59,8.59,0,0,0,4.57,2.81c3.07.63,5.24-.65,5.84-3.5a10.5,10.5,0,0,0,.24-2.17c0-12.86,0-25.71,0-38.56a11.46,11.46,0,0,0-.91-4Zm0,0" transform="translate(0 0)"/><path class="cls-2" d="M243.11,76v72.2H229.73v-7.76c-1.48,1.46-2.74,2.82-4.13,4a18.06,18.06,0,0,1-8.5,4.42c-5,1-9.27-.6-10.86-5.79a19.14,19.14,0,0,1-.87-5.39V76h13.28V131a12.36,12.36,0,0,0,.19,2.18c.4,2.27,2.08,3.34,4.27,2.58a14.26,14.26,0,0,0,6.42-4.94,2.36,2.36,0,0,0,.2-1.34V76Zm0,0" transform="translate(0 0)"/><path class="cls-2" d="M132.46,88.54c-2.9-12.24-9-38.08-9-38.08H108.25s11.7,38.79,16.93,56.09a6.81,6.81,0,0,1,.28,2v39.67h14V108.5a6.92,6.92,0,0,1,.28-2c5.23-17.3,16.93-56.09,16.93-56.09H141.46s-6.09,25.84-9,38.08Zm0,0" transform="translate(0 0)"/><path class="cls-2" d="M175,74.18a19.15,19.15,0,0,0-19.15,19.16v37.49a19.15,19.15,0,0,0,38.31,0V93.34A19.16,19.16,0,0,0,175,74.18Zm5.53,57.4a5.53,5.53,0,0,1-11.05,0v-39a5.53,5.53,0,1,1,11.05,0Zm0,0" transform="translate(0 0)"/></svg>