<svg xmlns="http://www.w3.org/2000/svg" width="16" height="16" viewBox="0 0 16 16">
  <defs>
    <style>
      .cls-1 {
        fill: #4c9ce0;
        fill-rule: evenodd;
      }
    </style>
  </defs>
  <path id="info" class="cls-1" d="M331.651,779.335a8,8,0,1,0,0,11.316A8,8,0,0,0,331.651,779.335Zm-3.987,9.463-0.146.571q-0.655.247-1.048,0.378a2.894,2.894,0,0,1-.908.13,1.867,1.867,0,0,1-1.236-.372,1.177,1.177,0,0,1-.441-0.942,3.236,3.236,0,0,1,.033-0.454c0.022-.154.058-0.328,0.106-0.523l0.547-1.853c0.049-.177.091-0.346,0.124-0.5a2.136,2.136,0,0,0,.049-0.434,0.653,0.653,0,0,0-.153-0.5,0.891,0.891,0,0,0-.585-0.14,1.6,1.6,0,0,0-.435.064c-0.148.042-.276,0.082-0.382,0.12l0.146-.571q0.537-.21,1.028-0.358a3.188,3.188,0,0,1,.93-0.15,1.824,1.824,0,0,1,1.218.365,1.191,1.191,0,0,1,.428.949c0,0.081-.01.222-0.03,0.425a2.714,2.714,0,0,1-.11.559l-0.544,1.845a4.7,4.7,0,0,0-.12.509,2.5,2.5,0,0,0-.053.431,0.607,0.607,0,0,0,.171.5,1,1,0,0,0,.6.134,1.8,1.8,0,0,0,.451-0.067A2.536,2.536,0,0,0,327.664,788.8Zm0.138-7.76a1.1,1.1,0,0,1-.339.814,1.114,1.114,0,0,1-.815.336,1.128,1.128,0,0,1-.82-0.336,1.142,1.142,0,0,1,0-1.63,1.123,1.123,0,0,1,.82-0.339A1.157,1.157,0,0,1,327.8,781.038Z" transform="translate(-318 -777)"/>
</svg>
