<svg xmlns="http://www.w3.org/2000/svg" viewBox="0 0 39 46">
  <defs>
    <style>.cls-1 {fill: #4c9ce0;fill-rule: evenodd;}</style>
  </defs>
  <path class="cls-1"
        d="M1036.82,911.73l12.23-11.22a1.12,1.12,0,0,0-1.5-1.663L1031.62,913.4l-2.64-2.35c0-.009-0.01-0.017-0.01-0.025-0.06-.058-0.12-0.108-0.18-0.158l-12.73-11.6a1.12,1.12,0,0,0-1.49,1.672l11.92,10.868-9.86,9.228a1.121,1.121,0,0,0-.05,1.581,1.12,1.12,0,0,0,1.58.058l10.01-9.361,2.71,2.425a1.116,1.116,0,0,0,1.49-.008l2.79-2.5,9.95,9.452a1.09,1.09,0,0,0,.77.306,1.118,1.118,0,0,0,.77-1.928ZM1046.99,897v2c1.47,0,2,1.535,2,3v20a3.28,3.28,0,0,1-3,3h-29a3.289,3.289,0,0,1-3-3V902a3.289,3.289,0,0,1,3-3v-2c-2.69,0-5,1.3-5,4v21a4.994,4.994,0,0,0,4.89,5h29.22a4.987,4.987,0,0,0,4.89-5V901C1051,898.3,1049.69,897,1046.99,897Zm-8-15.947c0.17,0-.12-0.119,0,0h0Zm-21,19.947V885a2.028,2.028,0,0,1,2-2h17v5c0,1.513,1.56,4,3,4h5v9h2V889.634c0-.581.12-0.489,0-0.607l-8-8.027h-21a2.057,2.057,0,0,0-2,2.053V901m23-17,6,6h-4a2.1,2.1,0,0,1-2-2v-4Zm-3,13h-8v-2h8v2Zm6,4h-21v-2h21v2Zm-13-10h-8v-2h8v2Zm-3-4h-5v-2h5v2Zm12,18h-13v-2h13v2Z"
        transform="translate(-1012 -881)"/>
</svg>
