<?xml version="1.0" encoding="utf-8"?>
<!-- Generator: Adobe Illustrator 20.1.0, SVG Export Plug-In . SVG Version: 6.00 Build 0)  -->
<svg version="1.1" id="Layer_1" xmlns="http://www.w3.org/2000/svg" xmlns:xlink="http://www.w3.org/1999/xlink" x="0px" y="0px"
	 width="16px" height="12px" viewBox="0 0 16 12" style="enable-background:new 0 0 16 12;" xml:space="preserve">
<style type="text/css">
	.st0{fill:#4C9CE0;}
</style>
<path class="st0" d="M15,0H1C0.4,0,0,0.4,0,1v10c0,0.6,0.4,1,1,1h14c0.6,0,1-0.4,1-1V1C16,0.4,15.6,0,15,0z M5.7,7L8,8.6L10.3,7l4,4
	H1.7L5.7,7L5.7,7z M1,10.3V3.8l3.8,2.6L1,10.3z M11.1,6.4L15,3.8v6.5L11.1,6.4z M15,1v1.6l0,0L8,7.4L1,2.6V1H15z"/>
</svg>
