<svg xmlns="http://www.w3.org/2000/svg" viewBox="0 0 39.25 40">
  <defs>
    <style>.cls-1 {fill: #4c9ce0;fill-rule: evenodd;}</style>
  </defs>
  <path class="cls-1"
        d="M474.574,3849.1l-1.98-1.98a2.379,2.379,0,0,0-3.289,0l-10.7,10.7-1.883,5.96,1.215,1.22,5.837-1.85,10.8-10.76A2.325,2.325,0,0,0,474.574,3849.1Zm-4.47,5.09-6.767,6.77-2.6-2.6,6.768-6.77Zm-10.263,5.94,1.722,1.73-3.079,1.35Zm13.524-9.38a0.464,0.464,0,0,1-.127.31l-1.8,1.79-2.6-2.59,1.8-1.8a0.475,0.475,0,0,1,.614,0l1.982,1.98A0.428,0.428,0,0,1,473.365,3850.75Zm-17.359-9.76h-8v-2h8v2Zm6,4h-21v-2h21v2Zm0,4h-21v-2h21v2Zm-13-14h-8v-2h8v2Zm-3-4h-5v-2h5v2Zm11,24h-16v-2h16v2Zm-5,4h-11v-2h11v2Zm7-33.94c0.17,0-.12-0.12,0,0h0Zm-4,37.94h-15a2.031,2.031,0,0,1-2-1.94v-32.06a2.027,2.027,0,0,1,2-2h17v5c0,1.52,1.553,4,3,4h5v10h2v-12.36c0-.58.12-0.49,0-0.61l-8-8.03h-21a2.053,2.053,0,0,0-2,2.06v35a2.894,2.894,0,0,0,3,2.94h16v-2Zm4-35,6,6h-4a2.091,2.091,0,0,1-2-2v-4Z"
        transform="translate(-436 -3825)"/>
</svg>
