<svg xmlns="http://www.w3.org/2000/svg" width="42" height="47.22" viewBox="0 0 42 47.22">
  <defs>
    <style>.cls-1 {fill: #4c9ce0;fill-rule: evenodd;}</style>
  </defs>
  <path class="cls-1"
        d="M568.678,2936.95a2.7,2.7,0,1,0-2.7-2.7A2.7,2.7,0,0,0,568.678,2936.95Zm0-3.85a1.155,1.155,0,1,1-1.155,1.15A1.157,1.157,0,0,1,568.678,2933.1Zm-16.179,3.85a2.7,2.7,0,1,0-2.7-2.7A2.7,2.7,0,0,0,552.5,2936.95Zm0-3.85a1.155,1.155,0,1,1-1.155,1.15A1.157,1.157,0,0,1,552.5,2933.1Zm0,33.13a2.7,2.7,0,1,0,2.7,2.69A2.7,2.7,0,0,0,552.5,2966.23Zm0,3.85a1.155,1.155,0,1,1,1.156-1.16A1.158,1.158,0,0,1,552.5,2970.08Zm30.5-27.73V2928H546v47h20.012c2.176-.1,2.653.23,4.207,0.23a10.945,10.945,0,0,0,5.026-1.41,12.356,12.356,0,0,0,5.328,1.01c4.536,0,7.427-2.5,7.427-5.52v-21.57C588,2944.8,585,2942.5,583,2942.35Zm3.108,5.37c0,2.08-2.324,3.87-5.873,3.87s-5.549-1.77-5.549-3.85a2.335,2.335,0,0,1,.034-0.39c0.006-.03.019-0.07,0.028-0.1a2.688,2.688,0,0,1,.071-0.27c0.014-.04.035-0.08,0.051-0.12a2.569,2.569,0,0,1,.111-0.24,1,1,0,0,1,.082-0.13,1.867,1.867,0,0,1,.139-0.22c0.041-.06.09-0.11,0.137-0.17a1.545,1.545,0,0,1,.136-0.16,2.548,2.548,0,0,1,.247-0.24c0.027-.03.05-0.05,0.078-0.08a5.924,5.924,0,0,1,.822-0.59,8.488,8.488,0,0,1,.966-0.47,0.15,0.15,0,0,1,.063-0.02,8.554,8.554,0,0,1,1.071-.35,0.06,0.06,0,0,0,.04-0.01c0.319-.08.648-0.14,0.986-0.19h0.041a9.673,9.673,0,0,1,1.088-.09l0.362-.02C584.787,2943.88,586.108,2945.63,586.108,2947.72Zm0.256,18.95a1.538,1.538,0,0,1-.051.19c-0.018.06-.035,0.12-0.057,0.18a1.671,1.671,0,0,1-.085.19,1.5,1.5,0,0,1-.086.17c-0.035.06-.075,0.12-0.115,0.18a1.438,1.438,0,0,1-.114.17,1.618,1.618,0,0,1-.145.17c-0.045.06,0.28,0.11,0.231,0.16s-0.115.11-.174,0.17-0.1.09-.159,0.14a2.135,2.135,0,0,1-.2.16c-0.06.04-.118,0.09-0.181,0.14s-0.148.09-.225,0.14-0.131.08-.2,0.13-0.163.08-.247,0.13a2.038,2.038,0,0,1-.219.11c-0.087.04-.179,0.08-0.27,0.12a2.053,2.053,0,0,1-.232.1c-0.1.04-.2,0.07-0.3,0.11a2.126,2.126,0,0,1-.241.08,1.774,1.774,0,0,1-.316.09c-0.084.03-.165,0.05-0.251,0.08-0.11.02-.224,0.05-0.336,0.07a2.268,2.268,0,0,1-.256.05c-0.123.03-.248,0.04-0.373,0.06-0.081.01-.161,0.03-0.244,0.04-0.139.02-.282,0.03-0.423,0.04a1.534,1.534,0,0,0-.212.02c-0.214.01-.432,0.02-0.651,0.02-0.3,0-.6-0.02-0.892-0.04l-0.239-.03c-0.248-.02-0.493-0.06-0.734-0.1-0.036-.01-0.226-0.01-0.263-0.02a4.191,4.191,0,0,0-.107-0.58v-0.93c0,0.01.263,0.01,0.317,0.02,0.208,0.03.5,0.06,0.705,0.08,0.087,0.01.212,0.02,0.3,0.02,0.29,0.02.6,0.04,0.894,0.04,0.316,0,.634-0.02.939-0.04l0.3-.03c0.206-.02.412-0.04,0.611-0.07,0.11-.02.218-0.04,0.325-0.05,0.185-.04.367-0.07,0.546-0.11,0.105-.03.209-0.05,0.311-0.08,0.185-.05.364-0.1,0.542-0.16,0.086-.03.174-0.05,0.258-0.08,0.246-.09.487-0.18,0.717-0.28,0.009,0,.018-0.01.027-0.01a7.442,7.442,0,0,0,.684-0.35c0.07-.04.135-0.08,0.2-0.12a0.382,0.382,0,0,1,.267-0.43c0.124-.09.242-0.18,0.356-0.28,0.034-.03.074-0.06,0.107-0.09,0,0.04-.006.09-0.012,0.13C586.384,2966.55,586.377,2966.61,586.364,2966.67Zm-9.646,0a1.535,1.535,0,0,1-.052.19c-0.018.06-.034,0.12-0.057,0.18a1.511,1.511,0,0,1-.085.19,1.349,1.349,0,0,1-.086.17c-0.035.06-.075,0.12-0.115,0.18a1.438,1.438,0,0,1-.114.17,1.507,1.507,0,0,1-.145.17,1.444,1.444,0,0,1-.138.16c-0.054.06-.114,0.11-0.174,0.17s-0.1.09-.159,0.14a2.123,2.123,0,0,1-.2.16c-0.06.04-.118,0.09-0.181,0.14s-0.149.09-.225,0.14-0.131.08-.2,0.13-0.163.08-.246,0.13a1.962,1.962,0,0,1-.22.11c-0.087.04-.179,0.08-0.269,0.12a2.149,2.149,0,0,1-.233.1c-0.1.04-.2,0.07-0.3,0.11a2.11,2.11,0,0,1-.24.08,1.823,1.823,0,0,1-.316.09c-0.084.03-.166,0.05-0.251,0.08-0.111.02-.225,0.05-0.337,0.07a2.268,2.268,0,0,1-.256.05c-0.122.03-.248,0.04-0.373,0.06-0.081.01-.161,0.03-0.243,0.04-0.14.02-.282,0.03-0.424,0.04a1.534,1.534,0,0,0-.212.02c-0.214.01-.431,0.02-0.651,0.02s-0.437-.01-0.652-0.02c-0.071-.01-0.141-0.01-0.212-0.02-0.142-.01-0.285-0.02-0.423-0.04a2.034,2.034,0,0,1-.244-0.04c-0.125-.02-0.25-0.03-0.373-0.06a2.3,2.3,0,0,1-.255-0.05c-0.113-.02-0.227-0.05-0.338-0.07a2.456,2.456,0,0,0-.249-0.07c-0.107-.03-0.215-0.06-0.318-0.1a2.11,2.11,0,0,1-.24-0.08c-0.1-.04-0.2-0.07-0.3-0.11-0.08-.03-0.155-0.07-0.233-0.1s-0.182-.08-0.269-0.12a1.962,1.962,0,0,1-.22-0.11c-0.083-.05-0.167-0.09-0.247-0.13s-0.134-.09-0.2-0.13-0.153-.09-0.225-0.14-0.121-.09-0.181-0.14a2,2,0,0,1-.2-0.16c-0.056-.05-0.107-0.09-0.16-0.14s-0.119-.11-0.174-0.17a1.685,1.685,0,0,1-.137-0.16,1.747,1.747,0,0,1-.145-0.17,1.567,1.567,0,0,1-.113-0.17c-0.04-.06-0.081-0.12-0.116-0.18a1.5,1.5,0,0,1-.086-0.17,1.671,1.671,0,0,1-.085-0.19c-0.022-.06-0.039-0.12-0.057-0.18a1.538,1.538,0,0,1-.051-0.19c-0.013-.06-0.02-0.12-0.027-0.18s-0.009-.09-0.012-0.13a0.692,0.692,0,0,0,.107.08c0.114,0.1.232,0.2,0.356,0.29a2.548,2.548,0,0,0,.211.16q0.2,0.135.425,0.27c0.068,0.04.132,0.08,0.2,0.12a7.3,7.3,0,0,0,.683.35,0.028,0.028,0,0,1,.025.01c0.231,0.1.472,0.19,0.719,0.28,0.084,0.03.172,0.05,0.258,0.08,0.177,0.06.357,0.11,0.542,0.16,0.1,0.03.206,0.05,0.31,0.07,0.179,0.04.361,0.08,0.546,0.11l0.323,0.06c0.2,0.03.4,0.05,0.609,0.07l0.291,0.03c0.306,0.02.615,0.04,0.93,0.04s0.624-.02.929-0.04l0.291-.03c0.206-.02.41-0.04,0.609-0.07,0.11-.02.217-0.04,0.324-0.05,0.185-.04.366-0.07,0.545-0.11,0.105-.03.208-0.05,0.311-0.08,0.185-.05.363-0.1,0.541-0.16,0.087-.03.174-0.05,0.258-0.08,0.247-.09.487-0.18,0.717-0.28,0.009,0,.018-0.01.028-0.01a7.423,7.423,0,0,0,.683-0.35c0.07-.04.135-0.08,0.2-0.12,0.145-.09.288-0.18,0.423-0.27a2.4,2.4,0,0,0,.212-0.16c0.124-.09.242-0.18,0.356-0.28,0.034-.03.074-0.06,0.107-0.09,0,0.04-.006.09-0.011,0.13C576.737,2966.55,576.73,2966.61,576.718,2966.67ZM553,2944.05v-4.8c3-.19,4.3-2.25,4.492-5.25h6.192c0.188,3,2.316,5.06,4.316,5.25v4.8a0.355,0.355,0,0,0,.111-0.04c-0.13-.13-0.195-0.25-0.332-0.37s-0.223-.25-0.359-0.36c-0.05-.04-0.086-0.08-0.137-0.12a10.6,10.6,0,0,0-5.529-2.29c-0.026,0-.045-0.01-0.07-0.01a10.086,10.086,0,0,0-2.2,0c-0.025,0-.048.01-0.074,0.01a10.629,10.629,0,0,0-5.538,2.29c-0.051.04-.105,0.08-0.155,0.12-0.137.11-.265,0.24-0.4,0.36s-0.217.24-.346,0.37C552.966,2944.03,553,2944.04,553,2944.05Zm18.468,9.15a0.048,0.048,0,0,1,.035.01,9.541,9.541,0,0,1,1.2.22,7.249,7.249,0,0,1,.966.3c0.15,0.06.3,0.12,0.439,0.18,0.079,0.03.16,0.07,0.236,0.1,0.212,0.11.413,0.22,0.6,0.34,0.043,0.03.084,0.05,0.125,0.08a4.906,4.906,0,0,1,1.048.92l0.024,0.03a2.673,2.673,0,0,1,.247.35,0.138,0.138,0,0,1,.025.04,2.33,2.33,0,0,1,.167.34c0.009,0.02.021,0.04,0.029,0.06a2.276,2.276,0,0,1,.094.32c0.007,0.03.017,0.06,0.023,0.09a2.087,2.087,0,0,1,.04.4c0,2.09-3,3.85-6.549,3.85s-6.548-1.76-6.548-3.85a2.3,2.3,0,0,1,.229-0.97,3.646,3.646,0,0,1,1.053-1.28c0.031-.02.063-0.05,0.1-0.07a3.534,3.534,0,0,1,.432-0.3,9.139,9.139,0,0,1,4.739-1.23A10.342,10.342,0,0,1,571.468,2953.2Zm2.694-1.87c0.069,0.05.138,0.1,0.211,0.15,0.135,0.09.278,0.18,0.424,0.27,0.068,0.04.133,0.08,0.2,0.12a7.3,7.3,0,0,0,.683.35c0.009,0,.017.01,0.025,0.01,0.232,0.1.472,0.2,0.719,0.28,0.084,0.03.172,0.05,0.258,0.08,0.178,0.06.357,0.11,0.542,0.16,0.1,0.03.206,0.05,0.311,0.08,0.178,0.04.36,0.07,0.545,0.11,0.107,0.02.214,0.03,0.324,0.05,0.2,0.03.4,0.05,0.608,0.07l0.291,0.03c0.3,0.02.614,0.04,0.929,0.04s0.624-.02.929-0.04a2.84,2.84,0,0,0,.291-0.03c0.206-.02.409-0.04,0.609-0.07,0.109-.01.216-0.03,0.323-0.05,0.185-.04.367-0.07,0.546-0.11,0.105-.03.208-0.05,0.31-0.08,0.185-.05.364-0.1,0.542-0.16a2.4,2.4,0,0,0,.258-0.08c0.247-.08.487-0.18,0.717-0.28,0.009,0,.018-0.01.027-0.01,0.238-.11.465-0.22,0.684-0.34,0.07-.04.135-0.09,0.2-0.13a2.147,2.147,0,0,0,.055-0.27l0.212-.15c0.124-.1.242-0.19,0.356-0.29,0.034-.03.074-0.06,0.107-0.09,0,0.04-1.246.47-.012,0.13-1.041.19-.013,0.12-0.027,0.18s-0.032.13-.051,0.2-0.035.12-.057,0.18-0.055.12-.085,0.18-0.054.12-.086,0.18-0.075.12-.115,0.18-0.072.11-.114,0.16-0.1.12-.145,0.18,0.28,0.1.231,0.15-0.115.11-.174,0.17-0.1.1-.159,0.15-0.133.1-.2,0.15-0.118.09-.181,0.14a2.01,2.01,0,0,1-.225.14,1.9,1.9,0,0,1-.2.13c-0.079.04-.163,0.09-0.247,0.13s-0.144.08-.219,0.12a2.633,2.633,0,0,1-.27.11,2.053,2.053,0,0,1-.232.1c-0.1.04-.2,0.08-0.3,0.11l-0.241.09-0.316.09c-0.084.02-.165,0.05-0.251,0.07-0.11.03-.224,0.05-0.336,0.07l-0.256.06c-0.123.02-.248,0.04-0.373,0.05a2,2,0,0,1-.244.04c-0.139.02-.282,0.03-0.423,0.04a1.506,1.506,0,0,1-.212.02c-0.214.01-.432,0.02-0.651,0.02q-0.416,0-.825-0.03l-0.258-.03c-0.185-.02-0.369-0.04-0.55-0.07-0.1-.01-0.2-0.03-0.3-0.05-0.162-.03-0.326-0.06-0.484-0.1-0.1-.03-0.2-0.06-0.3-0.08-0.115-.04-0.228-0.07-0.339-0.1a7.328,7.328,0,0,0-2.989-1.95,2.487,2.487,0,0,1-.5-1.32c0.035,0.04.078,0.06,0.115,0.1C573.919,2951.14,574.037,2951.23,574.162,2951.33Zm11.566,3.23,0.212-.15c0.124-.1.242-0.19,0.356-0.29,0.034-.03.074-0.06,0.107-0.09,0,0.04-.006.09-0.012,0.13-0.007.06-.013,0.12-0.027,0.19s-0.032.12-.051,0.19-0.035.12-.057,0.18-0.055.12-.085,0.19c-0.028.05-.054,0.11-0.086,0.17s-0.075.12-.115,0.18-0.072.11-.114,0.16-0.1.12-.145,0.18,0.28,0.1.231,0.15a1.854,1.854,0,0,1-.174.17c-0.052.05-.1,0.1-0.159,0.15s-0.133.1-.2,0.15-0.118.09-.181,0.14a2.01,2.01,0,0,1-.225.14,1.9,1.9,0,0,1-.2.13,2.325,2.325,0,0,1-.247.13c-0.073.04-.144,0.08-0.219,0.12s-0.179.08-.27,0.12-0.152.06-.232,0.1c-0.1.03-.2,0.07-0.3,0.1l-0.241.09-0.316.09c-0.084.02-.165,0.05-0.251,0.07-0.11.03-.224,0.05-0.336,0.07l-0.256.06-0.373.06-0.244.03c-0.139.02-.282,0.03-0.423,0.04a1.506,1.506,0,0,1-.212.02c-0.214.01-.432,0.02-0.651,0.02a10.975,10.975,0,0,1-1.151-.07c-0.113-.01-0.38-0.03-0.493-0.05a3.876,3.876,0,0,1-.591-0.08v-0.57a4.17,4.17,0,0,0,.117-0.5c-0.013-.11.039-0.21,0.016-0.32-0.009-.04.025-0.08,0.014-0.12h0.072c0.218,0.04.451,0.06,0.672,0.09,0.11,0.01.222,0.03,0.332,0.04,0.334,0.03.672,0.04,1.009,0.04,0.316,0,.626-0.01.931-0.04,0.1,0,.194-0.02.292-0.02,0.2-.02.409-0.05,0.608-0.08,0.11-.01.217-0.03,0.324-0.05,0.185-.03.367-0.07,0.546-0.11,0.105-.03.208-0.05,0.31-0.08a5.034,5.034,0,0,0,.542-0.16,2.4,2.4,0,0,0,.258-0.08c0.247-.08.487-0.18,0.717-0.28a0.031,0.031,0,0,0,.027-0.01,7.381,7.381,0,0,0,.684-0.34,1.919,1.919,0,0,0,.2-0.13A1.834,1.834,0,0,0,585.728,2954.56Zm0,3.08,0.212-.15c0.124-.09.242-0.19,0.356-0.29,0.034-.03.074-0.06,0.107-0.09a1.156,1.156,0,0,1-.012.13,1.773,1.773,0,0,1-.027.19c-0.013.06-.032,0.13-0.051,0.19s-0.035.12-.057,0.18-0.055.12-.085,0.19c-0.028.05-.054,0.11-0.086,0.17s-0.075.12-.115,0.18-0.072.11-.114,0.17-0.1.11-.145,0.17a2.509,2.509,0,0,1,.231.16c-0.054.05-.115,0.11-0.174,0.16s-0.1.1-.159,0.15-0.133.1-.2,0.15a1.793,1.793,0,0,1-.181.14c-0.071.05-.148,0.1-0.225,0.15s-0.131.08-.2,0.12a2.325,2.325,0,0,1-.247.13c-0.073.04-.144,0.08-0.219,0.12s-0.179.08-.27,0.12-0.152.07-.232,0.1a3.12,3.12,0,0,1-.3.1l-0.241.09-0.316.09c-0.084.02-.165,0.05-0.251,0.07-0.11.03-.224,0.05-0.336,0.07l-0.256.06-0.373.06-0.244.03c-0.139.02-.282,0.03-0.423,0.04a1.506,1.506,0,0,1-.212.02c-0.214.02-.432,0.02-0.651,0.02a8.8,8.8,0,0,1-1.151-.07l-0.493-.04a5.815,5.815,0,0,1-.591-0.08v-1.5c0,0.01.263,0.01,0.317,0.02,0.208,0.03.5,0.05,0.705,0.07,0.087,0.01.212,0.02,0.3,0.03,0.29,0.02.6,0.03,0.894,0.03,0.316,0,.634-0.01.939-0.03l0.3-.03c0.206-.02.412-0.05,0.611-0.07l0.325-.06c0.185-.03.367-0.07,0.546-0.11,0.105-.02.209-0.05,0.311-0.07,0.185-.05.364-0.11,0.542-0.16l0.258-.09a5.855,5.855,0,0,0,.717-0.28,0.031,0.031,0,0,0,.027-0.01,7.381,7.381,0,0,0,.684-0.34c0.07-.04.135-0.08,0.2-0.12A2.313,2.313,0,0,0,585.728,2957.64Zm0,3.09c0.072-.06.142-0.11,0.212-0.16,0.124-.09.242-0.19,0.356-0.29,0.034-.03.074-0.05,0.107-0.08q0,0.06-.012.12a1.472,1.472,0,0,1-.027.19c-0.013.06-.032,0.13-0.051,0.19s-0.035.12-.057,0.18-0.055.13-.085,0.19-0.054.11-.086,0.17-0.075.12-.115,0.18-0.072.11-.114,0.17-0.1.11-.145,0.17,0.28,0.11.231,0.16-0.115.11-.174,0.16-0.1.1-.159,0.15-0.133.1-.2,0.16c-0.06.04-.118,0.09-0.181,0.13s-0.148.1-.225,0.15-0.131.08-.2,0.12-0.163.09-.247,0.14c-0.073.03-.144,0.07-0.219,0.11s-0.179.08-.27,0.12-0.152.07-.232,0.1c-0.1.04-.2,0.07-0.3,0.11a2.427,2.427,0,0,0-.241.08l-0.316.09a2.227,2.227,0,0,1-.251.07c-0.11.03-.224,0.05-0.336,0.08-0.086.01-.169,0.04-0.256,0.05l-0.373.06c-0.081.01-.161,0.03-0.244,0.04-0.139.01-.282,0.02-0.423,0.04-0.071,0-.14.01-0.212,0.01-0.214.02-.432,0.02-0.651,0.02a10.978,10.978,0,0,1-1.151-.06c-0.113-.02-0.38-0.04-0.493-0.05a3.876,3.876,0,0,1-.591-0.08v-1.5c0,0.01.263,0.01,0.317,0.02,0.208,0.03.5,0.06,0.705,0.07,0.087,0.01.212,0.02,0.3,0.03,0.29,0.02.6,0.03,0.894,0.03,0.316,0,.634-0.01.939-0.03l0.3-.03c0.206-.02.412-0.04,0.611-0.07l0.325-.06c0.185-.03.367-0.07,0.546-0.11,0.105-.02.209-0.05,0.311-0.07,0.185-.05.364-0.1,0.542-0.16,0.086-.03.174-0.05,0.258-0.08,0.246-.09.487-0.18,0.717-0.28a0.031,0.031,0,0,1,.027-0.01c0.238-.11.465-0.23,0.684-0.35,0.07-.04.135-0.08,0.2-0.12A2.585,2.585,0,0,0,585.728,2960.73Zm0,3.08c0.072-.05.142-0.11,0.212-0.16,0.124-.09.242-0.19,0.356-0.29,0.034-.03.074-0.05,0.107-0.08,0,0.04-.006.08-0.012,0.13a1.6,1.6,0,0,1-.027.18,1.538,1.538,0,0,1-.051.19c-0.018.06-.035,0.12-0.057,0.18a1.671,1.671,0,0,1-.085.19,1.5,1.5,0,0,1-.086.17c-0.035.06-.075,0.12-0.115,0.18a1.438,1.438,0,0,1-.114.17,1.618,1.618,0,0,1-.145.17c-0.045.05,0.28,0.11,0.231,0.16s-0.115.11-.174,0.17c-0.052.04-.1,0.09-0.159,0.14a2.135,2.135,0,0,1-.2.16c-0.06.04-.118,0.09-0.181,0.13s-0.148.1-.225,0.15-0.131.08-.2,0.12-0.163.09-.247,0.14a2.038,2.038,0,0,1-.219.11c-0.087.04-.179,0.08-0.27,0.12s-0.152.07-.232,0.1c-0.1.04-.2,0.07-0.3,0.11a2.126,2.126,0,0,1-.241.08c-0.1.04-.21,0.06-0.316,0.09a2.227,2.227,0,0,1-.251.07c-0.11.03-.224,0.05-0.336,0.08a2.268,2.268,0,0,1-.256.05c-0.123.03-.248,0.04-0.373,0.06-0.081.01-.161,0.03-0.244,0.04-0.139.01-.282,0.03-0.423,0.04a1.534,1.534,0,0,0-.212.02c-0.214.01-.432,0.02-0.651,0.02a10.975,10.975,0,0,1-1.151-.07c-0.113-.02-0.38-0.03-0.493-0.05a3.876,3.876,0,0,1-.591-0.08v-1.5c0,0.01.263,0.01,0.317,0.02,0.208,0.03.5,0.06,0.705,0.08,0.087,0,.212.01,0.3,0.02,0.29,0.02.6,0.04,0.894,0.04,0.316,0,.634-0.02.939-0.04l0.3-.03c0.206-.02.412-0.04,0.611-0.07l0.325-.06a4.977,4.977,0,0,0,.546-0.11c0.105-.02.209-0.04,0.311-0.07,0.185-.05.364-0.1,0.542-0.16,0.086-.03.174-0.05,0.258-0.08,0.246-.09.487-0.18,0.717-0.28a0.031,0.031,0,0,1,.027-0.01c0.238-.11.465-0.23,0.684-0.35,0.07-.04.135-0.08,0.2-0.12A2.585,2.585,0,0,0,585.728,2963.81Zm-9.01-.22c-0.013.06-.033,0.13-0.052,0.19s-0.034.12-.057,0.18-0.055.13-.085,0.19a1.349,1.349,0,0,1-.086.17c-0.035.06-.075,0.12-0.115,0.18s-0.072.11-.114,0.17-0.095.11-.145,0.17-0.088.11-.138,0.16-0.114.11-.174,0.16-0.1.1-.159,0.15-0.133.11-.2,0.16-0.118.09-.181,0.13-0.149.1-.225,0.15-0.131.08-.2,0.12-0.163.09-.246,0.14c-0.073.03-.144,0.07-0.22,0.11s-0.179.08-.269,0.12-0.153.07-.233,0.1c-0.1.04-.2,0.07-0.3,0.11a2.11,2.11,0,0,1-.24.08l-0.316.09a2.288,2.288,0,0,1-.251.07c-0.111.03-.225,0.05-0.337,0.08a2.268,2.268,0,0,1-.256.05l-0.373.06c-0.081.01-.161,0.03-0.243,0.04-0.14.01-.282,0.02-0.424,0.04a1.534,1.534,0,0,0-.212.02c-0.214.01-.431,0.02-0.651,0.02s-0.437-.01-0.652-0.02a1.52,1.52,0,0,0-.212-0.02c-0.142-.01-0.285-0.03-0.423-0.04-0.083-.01-0.162-0.03-0.244-0.04-0.125-.02-0.25-0.03-0.373-0.06a2.3,2.3,0,0,1-.255-0.05c-0.113-.03-0.227-0.05-0.338-0.08a2.2,2.2,0,0,1-.249-0.07l-0.318-.09a2.11,2.11,0,0,1-.24-0.08c-0.1-.04-0.2-0.07-0.3-0.11-0.08-.03-0.155-0.07-0.233-0.1s-0.182-.08-0.269-0.12-0.147-.08-0.22-0.11c-0.083-.05-0.167-0.09-0.247-0.14s-0.134-.08-0.2-0.12-0.153-.1-0.225-0.15-0.121-.09-0.181-0.13-0.137-.11-0.2-0.16-0.107-.1-0.16-0.15-0.119-.11-0.174-0.16-0.092-.11-0.137-0.16-0.1-.11-0.145-0.17-0.076-.11-0.113-0.17-0.081-.12-0.116-0.18a1.5,1.5,0,0,1-.086-0.17c-0.03-.06-0.06-0.13-0.085-0.19s-0.039-.12-0.057-0.18a1.538,1.538,0,0,1-.051-0.19,1.67,1.67,0,0,1-.027-0.19c-0.006-.04-0.009-0.08-0.012-0.12,0.033,0.03.073,0.05,0.107,0.08,0.114,0.1.232,0.2,0.356,0.29,0.07,0.05.139,0.11,0.211,0.16q0.2,0.135.425,0.27c0.068,0.04.132,0.08,0.2,0.12,0.218,0.12.445,0.24,0.683,0.35a0.028,0.028,0,0,1,.025.01c0.231,0.1.472,0.19,0.719,0.28,0.084,0.03.172,0.05,0.258,0.08,0.177,0.06.357,0.11,0.542,0.16,0.1,0.02.206,0.05,0.31,0.07,0.179,0.04.361,0.08,0.546,0.11l0.323,0.06c0.2,0.03.4,0.05,0.609,0.07l0.291,0.03c0.306,0.02.615,0.04,0.93,0.04s0.624-.02.929-0.04l0.291-.03c0.206-.02.41-0.04,0.609-0.07l0.324-.06a4.96,4.96,0,0,0,.545-0.11c0.105-.02.208-0.04,0.311-0.07,0.185-.05.363-0.1,0.541-0.16,0.087-.03.174-0.05,0.258-0.08,0.247-.09.487-0.18,0.717-0.28a0.032,0.032,0,0,1,.028-0.01c0.238-.11.464-0.23,0.683-0.35,0.07-.04.135-0.08,0.2-0.12,0.145-.09.288-0.18,0.423-0.27,0.073-.05.142-0.11,0.212-0.16,0.124-.09.242-0.19,0.356-0.29,0.034-.03.074-0.05,0.107-0.08,0,0.04-.006.08-0.011,0.13S576.73,2963.53,576.718,2963.59Zm-15.209-2.81c-0.308.03-.615,0.05-0.92,0.05a7.716,7.716,0,0,1-1.078-.07c-0.114-.01-0.227-0.03-0.339-0.05-0.24-.03-0.478-0.08-0.713-0.13-0.128-.03-0.255-0.07-0.381-0.1-0.224-.07-0.443-0.14-0.66-0.22-0.116-.04-0.234-0.08-0.348-0.13a7.638,7.638,0,0,1-.9-0.42c-0.089-.05-0.173-0.11-0.261-0.16-0.214-.13-0.425-0.26-0.628-0.4-0.1-.08-0.2-0.15-0.3-0.23q-0.3-.225-0.578-0.48c-0.07-.06-0.143-0.13-0.211-0.19-0.157-.15-0.3-0.32-0.447-0.48l2.38-2.62a1.3,1.3,0,0,1,1.139-.46,0.4,0.4,0,0,1,.106.02c0.117,0.09.367,0.32,0.538,0.48a8.563,8.563,0,0,0,.916.78c0.435,0.84.474,1.17,0.922,1.3,0.542,0.16,1.253.11,1.253-.13v3.54c0,0.02.4,0.04,0.316,0.05A1.336,1.336,0,0,0,561.509,2960.78Zm-10.122-10.04c0.006-.07.014-0.14,0.022-0.21,0.028-.24.064-0.48,0.11-0.72l0.019-.11c0.057-.27.127-0.54,0.208-0.8,0.017-.06.037-0.12,0.054-0.17,0.067-.21.141-0.41,0.222-0.61,0.03-.07.06-0.14,0.091-0.22,0.092-.21.191-0.41,0.3-0.61,0.055-.11.115-0.21,0.174-0.31s0.132-.22.2-0.33c0,0,0,0,0-.01l2.223,2.44a2.859,2.859,0,0,0,2.08.97,2.8,2.8,0,0,0,.815-0.15,1.813,1.813,0,0,0,.76-0.63,1.6,1.6,0,0,1,1.15-.76,3.067,3.067,0,0,1,2.072.8l0.824,0.85,0.387-1.09a3.409,3.409,0,0,1,1.586-.6,5.919,5.919,0,0,1-.113,4.62c-0.053.03-.107,0.07-0.159,0.1-0.094.07-.182,0.14-0.272,0.2s-0.159.12-.234,0.18-0.164.15-.244,0.22-0.141.13-.206,0.19c-0.076.08-.144,0.16-0.214,0.24s-0.122.13-.176,0.2c-0.067.09-.124,0.17-0.183,0.26-0.048.07-.1,0.14-0.145,0.21-0.056.09-.1,0.19-0.151,0.28,0,0.01-.006.01-0.009,0.02a2.6,2.6,0,0,1-1.841.6,1,1,0,0,1-.619-0.68l-0.176-.42-0.31-.03c-0.163-.13-0.481-0.42-0.682-0.6a3.4,3.4,0,0,0-1.021-.79,2.832,2.832,0,0,0-.4-0.1,2.783,2.783,0,0,0-2.543.95l-2.2,2.41s0,0,0-.01c-0.064-.1-0.126-0.2-0.187-0.3-0.068-.12-0.134-0.23-0.2-0.35-0.1-.2-0.2-0.39-0.286-0.6-0.033-.07-0.063-0.15-0.093-0.22-0.08-.2-0.154-0.4-0.22-0.6-0.019-.06-0.039-0.11-0.056-0.17-0.081-.26-0.151-0.53-0.208-0.8-0.007-.04-0.012-0.08-0.019-0.11-0.046-.24-0.082-0.48-0.11-0.72-0.008-.07-0.016-0.14-0.022-0.22-0.026-.27-0.043-0.56-0.043-0.84S551.361,2951.02,551.387,2950.74Zm12.759,9.83c0.069,0.05.139,0.1,0.211,0.16,0.136,0.09.278,0.18,0.424,0.27,0.068,0.04.133,0.08,0.2,0.12a7.362,7.362,0,0,0,.683.34,0.029,0.029,0,0,0,.026.01c0.231,0.11.471,0.2,0.719,0.29,0.084,0.03.172,0.05,0.258,0.08,0.177,0.05.357,0.11,0.541,0.16,0.1,0.02.206,0.05,0.311,0.07,0.179,0.04.36,0.08,0.545,0.11l0.324,0.06c0.2,0.03.4,0.05,0.609,0.07l0.29,0.03c0.305,0.02.614,0.03,0.929,0.03s0.624-.01.929-0.03l0.291-.03c0.206-.02.41-0.04,0.609-0.07l0.324-.06c0.185-.03.366-0.07,0.545-0.11,0.105-.02.208-0.05,0.311-0.07,0.185-.05.363-0.1,0.541-0.16,0.087-.03.174-0.05,0.258-0.08,0.247-.09.487-0.18,0.717-0.28a0.032,0.032,0,0,1,.028-0.01c0.238-.11.464-0.23,0.683-0.35,0.07-.04.135-0.08,0.2-0.12,0.145-.09.288-0.18,0.423-0.27,0.073-.05.142-0.11,0.212-0.16,0.124-.09.242-0.19,0.356-0.29,0.034-.03.074-0.05,0.107-0.08,0,0.04-.006.08-0.011,0.12-0.008.07-.014,0.13-0.027,0.19s-0.033.13-.052,0.19-0.034.12-.057,0.18-0.055.13-.085,0.19a1.349,1.349,0,0,1-.086.17c-0.035.06-.075,0.12-0.115,0.18s-0.072.11-.114,0.17-0.095.11-.145,0.17-0.088.11-.138,0.16-0.114.11-.174,0.16-0.1.1-.159,0.15-0.133.11-.2,0.16-0.118.09-.181,0.13-0.149.1-.225,0.15-0.131.08-.2,0.12-0.163.09-.246,0.14c-0.073.03-.144,0.07-0.22,0.11s-0.179.08-.269,0.12-0.153.07-.233,0.1c-0.1.04-.2,0.07-0.3,0.11a2.11,2.11,0,0,1-.24.08l-0.316.09a2.288,2.288,0,0,1-.251.07c-0.111.03-.225,0.05-0.337,0.08a2.268,2.268,0,0,1-.256.05l-0.373.06c-0.081.01-.161,0.03-0.243,0.04-0.14.01-.282,0.02-0.424,0.04a1.534,1.534,0,0,0-.212.02c-0.214.01-.431,0.01-0.651,0.01s-0.437,0-.652-0.02c-0.071,0-.141-0.01-0.212-0.01-0.142-.02-0.285-0.03-0.423-0.04-0.083-.01-0.162-0.03-0.244-0.04l-0.373-.06c-0.086-.01-0.169-0.04-0.255-0.05-0.113-.03-0.227-0.05-0.338-0.08-0.085-.02-0.166-0.05-0.249-0.07l-0.318-.09a2.41,2.41,0,0,0-.24-0.08c-0.1-.04-0.2-0.07-0.3-0.11-0.08-.03-0.155-0.07-0.233-0.1s-0.182-.08-0.269-0.12-0.147-.08-0.22-0.12a2.536,2.536,0,0,1-.247-0.13c-0.069-.04-0.134-0.08-0.2-0.12s-0.153-.1-0.225-0.15-0.121-.09-0.181-0.13c-0.068-.06-0.137-0.11-0.2-0.16s-0.107-.1-0.16-0.15-0.119-.11-0.174-0.16-0.092-.11-0.137-0.16-0.1-.11-0.145-0.17-0.076-.11-0.113-0.17-0.081-.12-0.116-0.18-0.058-.11-0.086-0.17-0.06-.13-0.085-0.19-0.039-.12-0.057-0.18-0.038-.13-0.051-0.19-0.02-.13-0.027-0.19c-0.006-.04-0.009-0.08-0.012-0.13a0.786,0.786,0,0,0,.107.09C563.9,2960.38,564.022,2960.48,564.146,2960.57Zm5.065-8.94c-0.142.01-.282,0.03-0.422,0.04s-0.249.03-.373,0.05-0.272.04-.406,0.07-0.24.04-.358,0.07l-0.388.09-0.342.09-0.369.12c-0.013,0-.027.01-0.041,0.01a7.927,7.927,0,0,0-.617-4.79l-0.151-.29-0.317-.09a5.661,5.661,0,0,1-5.609-.03,3.048,3.048,0,0,0-2.325,1.31c-0.063.07-.116,0.14-0.168,0.19a2.043,2.043,0,0,1-.256.04,1.351,1.351,0,0,1-.916-0.46l-2.406-2.64c0.147-.17.29-0.33,0.446-0.48,0.069-.07.141-0.13,0.212-0.2,0.186-.16.379-0.32,0.577-0.48,0.1-.07.2-0.15,0.3-0.22,0.2-.14.413-0.28,0.628-0.4,0.088-.05.171-0.11,0.261-0.16a9.63,9.63,0,0,1,.9-0.43c0.113-.04.231-0.08,0.347-0.13,0.218-.07.437-0.15,0.661-0.21,0.126-.04.253-0.07,0.381-0.1,0.235-.06.472-0.1,0.713-0.14,0.113-.01.225-0.04,0.339-0.05a8.328,8.328,0,0,1,2.155,0c0.114,0.01.226,0.04,0.339,0.05,0.24,0.04.477,0.08,0.712,0.14,0.128,0.03.255,0.06,0.382,0.1,0.223,0.06.443,0.14,0.66,0.21,0.115,0.05.233,0.09,0.347,0.13a9.63,9.63,0,0,1,.9.43c0.09,0.05.174,0.11,0.262,0.16,0.213,0.12.424,0.26,0.627,0.4,0.1,0.07.2,0.15,0.3,0.22q0.3,0.24.577,0.48c0.071,0.07.143,0.13,0.212,0.2a9.731,9.731,0,0,1,1.491,1.72,9.257,9.257,0,0,1,1.524,4.94h0c0,0.01-.24.01-0.32,0.02C569.55,2951.61,569.339,2951.62,569.211,2951.63ZM552.98,2960c0.01,0-.025-0.42-0.015-0.41a8.069,8.069,0,0,0,.825.56c0.105,0.09.2,0.05,0.312,0.13,0.2,0.15.388,0.25,0.594,0.38,0.144,0.1.288,0.15,0.436,0.24,0.185,0.11.37,0.2,0.563,0.3,0.156,0.08.311,0.15,0.471,0.22,0.2,0.09.4,0.17,0.606,0.25,0.157,0.06.314,0.12,0.476,0.17,0.227,0.07.46,0.13,0.694,0.19,0.145,0.04.287,0.08,0.433,0.11a10.5,10.5,0,0,0,1.127.18c0.127,0.01.255,0.01,0.383,0.02,0.233,0.01.466,0.03,0.7,0.03H560.7c0.213-.01.428-0.03,0.643-0.04s-0.165-.03.038-0.05c0.06-.01-0.383-0.01-0.383-0.02V2969h-3.507c-0.188-3-1.493-4.88-4.493-5.07V2960h-0.02ZM581,2930v12.4a16.467,16.467,0,0,0-2,.1V2930h2Zm-2,0v0h0Zm-2,0v13.13c0,0.18-2,1.19-2,1.41V2930h2Zm-29,43v-43h25v22h-0.857c-0.253,0-.509-0.2-0.771-0.23,0-.02.086-0.1,0.086-0.12a10.608,10.608,0,0,0-1.458-5.59v-8.43l-0.924.07c-0.1.01-.25,0.02-0.356,0.02A3.854,3.854,0,0,1,565,2934v-1l0.006-.98-9.131-.02,0.075,1.39c0.008,0.1.016,0.48,0.016,0.59a3.588,3.588,0,0,1-3.467,3.6c-0.106,0-.382.06-0.486,0.05H551v8.43a1.283,1.283,0,0,0,.14.05c-0.1.17-.117,0.35-0.21,0.53-0.119.22-.189,0.46-0.291,0.69-0.038.09-.047,0.18-0.083,0.26-0.09.23-.163,0.45-0.237,0.68-0.031.1-.053,0.19-0.082,0.29-0.066.23-.123,0.46-0.174,0.69-0.023.1-.044,0.2-0.063,0.31-0.045.23-.08,0.47-0.109,0.72-0.012.09-.027,0.19-0.036,0.29-0.033.33-.053,0.67-0.053,1.02s0.021,0.68.052,1.02c0.009,0.1.025,0.19,0.036,0.29,0.03,0.24.065,0.48,0.111,0.72,0.02,0.1.042,0.21,0.064,0.31,0.051,0.23.11,0.46,0.177,0.68,0.028,0.1.056,0.2,0.087,0.29,0.074,0.23.159,0.46,0.248,0.68,0.035,0.09.066,0.18,0.1,0.27,0.1,0.23.216,0.46,0.334,0.69,0.093,0.18.022,0.35,0.124,0.52a0.542,0.542,0,0,1-.139.05v8.44l1.013-.08c0.1-.01.294-0.01,0.4-0.01a3.5,3.5,0,0,1,3.51,3.46c0,0.11.014,0.67,0.006,0.78l-0.054,1.3h6.338a1.818,1.818,0,0,1,.048-0.27c0.02,0.08.04-.07,0.066,0s0.045,0.31.069,0.37c0.238,0.63.7,1.83,1.486,1.83Zm18.271-.65c-0.077-.03-0.153-0.07-0.227-0.1-0.105-.06-0.21-0.11-0.31-0.17a1.631,1.631,0,0,1-.194-0.11,5.924,5.924,0,0,1-.506-0.35c-0.053-.04-0.111-0.08-0.161-0.12-0.071-.06-0.134-0.12-0.2-0.18s-0.124-.12-0.18-0.18-0.106-.12-0.156-0.18-0.113-.14-0.164-0.21c-0.037-.05-0.076-0.11-0.11-0.16a2.359,2.359,0,0,1-.155-0.29c-0.017-.03-0.038-0.07-0.052-0.1a2.974,2.974,0,0,1-.131-0.41c-0.008-.04-0.009-0.08-0.016-0.11a2.167,2.167,0,0,1-.024-0.24c0.032,0.03.071,0.06,0.1,0.09,0.114,0.1.233,0.19,0.357,0.29,0.069,0.05.138,0.1,0.211,0.15,0.135,0.1.278,0.18,0.424,0.27a1.927,1.927,0,0,0,.2.12,7.423,7.423,0,0,0,.683.35c0.009,0,.017.01,0.026,0.01,0.231,0.1.471,0.2,0.718,0.28a2.348,2.348,0,0,0,.259.08c0.177,0.06.356,0.11,0.541,0.16,0.1,0.03.206,0.05,0.311,0.08,0.178,0.04.36,0.07,0.545,0.11,0.107,0.02.214,0.03,0.324,0.05,0.2,0.03.4,0.05,0.608,0.07l0.291,0.03c0.3,0.03.613,0.04,0.928,0.04s0.624-.01.929-0.04a2.812,2.812,0,0,0,.291-0.03c0.206-.02.41-0.04,0.609-0.07,0.11-.01.217-0.03,0.324-0.05,0.185-.04.366-0.07,0.545-0.11,0.105-.03.208-0.05,0.311-0.08,0.185-.05.363-0.1,0.541-0.16a2.332,2.332,0,0,0,.258-0.08c0.247-.08.487-0.18,0.717-0.28,0.009,0,.018-0.01.028-0.01,0.238-.11.464-0.22,0.683-0.34,0.07-.04.135-0.09,0.2-0.13a3.779,3.779,0,0,0,.423-0.27c0.073-.05.142-0.1,0.212-0.15,0.124-.1.242-0.19,0.356-0.29,0.033-.03.072-0.06,0.1-0.09a2.17,2.17,0,0,1-.025.24c0,0.02,0,.04-0.009.06a2.824,2.824,0,0,1-.131.43h0a3.614,3.614,0,0,1-1.137,1.42l-0.046.03a4.372,4.372,0,0,1-.528.36,0.647,0.647,0,0,1-.112.07l-0.016.01a9.268,9.268,0,0,1-4.528,1.1A9.709,9.709,0,0,1,566.271,2972.35Zm13.964,0.81a9.911,9.911,0,0,1-3.51-.62,5.314,5.314,0,0,0,1-1.18h0.042c0.355,0.08.718,0.13,1.085,0.18,0.081,0.01.162,0.01,0.243,0.02a10.831,10.831,0,0,0,1.144.06c0.315,0,.624-0.01.929-0.04a2.84,2.84,0,0,0,.291-0.03c0.206-.02.409-0.04,0.609-0.07,0.109-.01.216-0.03,0.323-0.05,0.185-.04.367-0.07,0.546-0.11,0.105-.03.208-0.05,0.31-0.08,0.185-.05.364-0.1,0.542-0.16a2.4,2.4,0,0,0,.258-0.08c0.247-.08.487-0.18,0.717-0.28,0.009,0,.018-0.01.027-0.01,0.238-.11.465-0.22,0.684-0.34,0.07-.04.135-0.09,0.2-0.13a1.834,1.834,0,0,0,.055-0.27l0.212-.15c0.124-.1.242-0.19,0.356-0.29a0.945,0.945,0,0,0,.115-0.1C586.294,2971.47,583.713,2973.16,580.235,2973.16Z"
        transform="translate(-546 -2928)"/>
</svg>
