<svg xmlns="http://www.w3.org/2000/svg" width="48" height="49" viewBox="0 0 48 49">
  <defs>
    <style>.cls-1 {fill: #4c9ce0;fill-rule: evenodd;}</style>
  </defs>
  <path class="cls-1"
        d="M1050.53,2926.97a19.344,19.344,0,0,0-2.54.18,20.056,20.056,0,0,0-2.52-.18,19.4,19.4,0,0,0-11.22,3.63h0a22.568,22.568,0,0,0-4.49,4.2,1.059,1.059,0,0,0-.1.12,24.443,24.443,0,0,0-3.19,5.17,0.379,0.379,0,0,0-.06.13,26.073,26.073,0,0,0-1.48,4.14,0.771,0.771,0,0,0-.07.26,27.47,27.47,0,0,0-.86,6.85,27.172,27.172,0,0,0,2.04,10.41,0.418,0.418,0,0,0,.04.1,25.182,25.182,0,0,0,2.92,5.18,1.463,1.463,0,0,0,.09.13,23.583,23.583,0,0,0,3.99,4.17,1.576,1.576,0,0,0,.15.12,19.623,19.623,0,0,0,12.24,4.39,18.337,18.337,0,0,0,2.52-.18,19.344,19.344,0,0,0,2.54.18c11.84,0,21.47-10.99,21.47-24.5S1062.37,2926.97,1050.53,2926.97Zm-8.91,2.22c-0.27.14-.54,0.29-0.8,0.44-0.16.09-.32,0.18-0.47,0.28-0.24.14-.46,0.29-0.69,0.44h-1.62a17.926,17.926,0,0,1,3.86-1.31A2.487,2.487,0,0,0,1041.62,2929.19Zm-8.47,36.64h-3.03a22.979,22.979,0,0,1-1.97-3.38h3.19c0.13,0.3.27,0.6,0.41,0.89,0.06,0.13.13,0.25,0.19,0.37,0.17,0.34.35,0.68,0.54,1.01,0.07,0.12.13,0.24,0.2,0.36C1032.83,2965.34,1032.99,2965.59,1033.15,2965.83Zm-5.39-24.49h3.23c-0.15.37-.29,0.74-0.42,1.12a2.827,2.827,0,0,0-.11.31c-0.12.36-.24,0.73-0.34,1.1h-3.29A23.046,23.046,0,0,1,1027.76,2941.34Zm-2.08,10.13c0-.57.03-1.13,0.07-1.69h3.36v0.04q-0.06.825-.06,1.65c0,0.28.01,0.57,0.02,0.85h-3.35C1025.71,2952.03,1025.68,2951.76,1025.68,2951.47Zm3.49,2.54c0.03,0.35.07,0.7,0.12,1.06v0.07c0.07,0.47.14,0.94,0.23,1.4h-3.32a23.362,23.362,0,0,1-.38-2.53h3.35Zm0.52-8.45-0.06.3c-0.02.11-.05,0.22-0.07,0.33-0.1.53-.19,1.07-0.27,1.61v0.08l-0.03.21h-3.34a25.673,25.673,0,0,1,.44-2.53h3.33Zm0.2,12.67c0.03,0.1.05,0.21,0.08,0.31,0.01,0.04.02,0.08,0.03,0.11,0.14,0.52.29,1.02,0.46,1.52a2.827,2.827,0,0,0,.11.31c0.03,0.1.06,0.19,0.09,0.28h-3.24a23.393,23.393,0,0,1-.83-2.53h3.3Zm2.79-20.37c-0.07.12-.13,0.24-0.2,0.36-0.19.33-.37,0.67-0.54,1.01-0.06.12-.13,0.25-0.19,0.37-0.01.02-.01,0.03-0.02,0.05h-3.16a22.249,22.249,0,0,1,2.19-3.38h2.95c-0.1.14-.21,0.29-0.31,0.44C1033.15,2937.09,1032.91,2937.47,1032.68,2937.86Zm2.46-5.82h2.33c-0.21.19-.42,0.37-0.62,0.56-0.17.16-.34,0.33-0.5,0.5s-0.33.33-.49,0.51c-0.16.16-.32,0.33-0.47,0.5-0.13.15-.26,0.31-0.39,0.47h-2.78A19.991,19.991,0,0,1,1035.14,2932.04Zm-3.71,35.48h2.89c0.1,0.13.19,0.25,0.29,0.37,0.25,0.32.51,0.64,0.78,0.94,0.15,0.17.31,0.34,0.47,0.51s0.32,0.34.49,0.51c0.07,0.06.13,0.14,0.2,0.21h-2.53A20.692,20.692,0,0,1,1031.43,2967.52Zm10.47,6.39a18.106,18.106,0,0,1-5.45-2.16h2.04c0.1,0.08.21,0.15,0.32,0.23,0.17,0.14.35,0.27,0.53,0.4,0.33,0.23.67,0.45,1,.65,0.16,0.1.32,0.19,0.48,0.28,0.26,0.16.53,0.3,0.8,0.44C1041.71,2973.8,1041.8,2973.86,1041.9,2973.91Zm8.63,0.37a16.481,16.481,0,0,1-1.99-.12l-0.33-.04c-0.04-.01-0.08-0.01-0.12-0.02-0.3-.04-0.59-0.09-0.88-0.15a0.127,0.127,0,0,1-.06-0.01c-0.28-.05-0.56-0.12-0.84-0.19a0.516,0.516,0,0,1-.11-0.02c-0.26-.07-0.52-0.14-0.77-0.22-0.07-.02-0.14-0.05-0.21-0.07-0.22-.07-0.44-0.14-0.66-0.22-0.16-.06-0.31-0.12-0.46-0.18-0.13-.05-0.27-0.1-0.4-0.16a21.025,21.025,0,0,1-10.56-10.53c-0.02-.04-0.04-0.09-0.06-0.13-0.12-.26-0.24-0.53-0.36-0.8-0.04-.11-0.08-0.21-0.13-0.32-0.08-.21-0.17-0.42-0.25-0.64-0.05-.13-0.1-0.27-0.14-0.41-0.07-.19-0.14-0.38-0.2-0.57-0.05-.15-0.1-0.31-0.15-0.46l-0.15-.54c-0.05-.17-0.09-0.33-0.14-0.5s-0.09-.36-0.13-0.54l-0.12-.51c-0.03-.18-0.07-0.36-0.1-0.54s-0.07-.35-0.1-0.52l-0.09-.57c-0.02-.17-0.05-0.34-0.07-0.51-0.03-.2-0.05-0.41-0.07-0.61-0.01-.16-0.03-0.32-0.05-0.48-0.02-.23-0.03-0.47-0.04-0.71-0.01-.13-0.02-0.26-0.03-0.4-0.01-.37-0.02-0.74-0.02-1.12s0.01-.75.02-1.12c0.01-.14.02-0.27,0.03-0.4,0.01-.24.02-0.47,0.04-0.71,0.02-.16.03-0.32,0.05-0.48,0.02-.2.04-0.41,0.07-0.61,0.02-.17.05-0.34,0.07-0.51l0.09-.57c0.03-.17.06-0.34,0.09-0.52s0.07-.36.11-0.54l0.12-.51c0.04-.18.08-0.36,0.13-0.54,0.04-.16.09-0.33,0.13-0.49,0.05-.19.11-0.37,0.16-0.55,0.05-.15.1-0.3,0.15-0.46,0.06-.19.13-0.38,0.2-0.57,0.04-.14.09-0.27,0.14-0.41,0.08-.21.17-0.43,0.25-0.64a3.054,3.054,0,0,0,.13-0.32c0.12-.27.24-0.53,0.36-0.8,0.02-.04.04-0.09,0.06-0.13a21.025,21.025,0,0,1,10.56-10.53c0.13-.05.27-0.1,0.4-0.15,0.15-.06.3-0.13,0.46-0.18,0.22-.08.44-0.16,0.66-0.23a1.723,1.723,0,0,0,.21-0.07c0.25-.07.51-0.14,0.77-0.21,0.04-.01.08-0.02,0.11-0.03,0.28-.07.56-0.13,0.84-0.19,0.02,0,.04-0.01.06-0.01,0.29-.06.58-0.11,0.88-0.15,0.04,0,.08-0.01.12-0.01l0.33-.05a16.481,16.481,0,0,1,1.99-.12c10.91,0,19.79,10.24,19.79,22.81S1061.44,2974.28,1050.53,2974.28Zm0-40.15c0.51,0,1.02.04,1.53,0.09a0.308,0.308,0,0,0,.1.01,0.843,0.843,0,0,0,.09-1.68,14.038,14.038,0,0,0-1.74-.1h-0.01l-0.01.84v-0.84a0.816,0.816,0,0,0-.82.84A0.849,0.849,0,0,0,1050.53,2934.13Zm-6.46,1.58a0.772,0.772,0,0,0,.38-0.1,13.086,13.086,0,0,1,1.44-.63,0.852,0.852,0,0,0,.49-1.09,0.828,0.828,0,0,0-1.08-.49,14.469,14.469,0,0,0-1.62.71,0.842,0.842,0,0,0-.36,1.14A0.831,0.831,0,0,0,1044.07,2935.71Zm20.89,10.94a0.833,0.833,0,0,0,.81.64,0.761,0.761,0,0,0,.21-0.03,0.842,0.842,0,0,0,.61-1.02c-0.14-.56-0.31-1.13-0.49-1.67a0.844,0.844,0,1,0-1.6.54C1064.67,2945.62,1064.83,2946.13,1064.96,2946.65Zm-1.19-6.77c-0.32-.48-0.67-0.95-1.04-1.4a0.842,0.842,0,1,0-1.3,1.07c0.33,0.41.65,0.84,0.95,1.28A0.842,0.842,0,1,0,1063.77,2939.88Zm-13.24,28.93a13.642,13.642,0,0,1-1.57-.09,0.841,0.841,0,0,0-.2,1.67,14.886,14.886,0,0,0,1.77.11h0.07a0.814,0.814,0,0,0,.8-0.85A0.871,0.871,0,0,0,1050.53,2968.81Zm10.96-5.5a13.422,13.422,0,0,1-1.06,1.19,0.851,0.851,0,0,0,.01,1.2,0.841,0.841,0,0,0,.59.24,0.816,0.816,0,0,0,.6-0.25,16.3,16.3,0,0,0,1.17-1.31A0.846,0.846,0,0,0,1061.49,2963.31Zm-4.86,4a13.012,13.012,0,0,1-1.43.64,0.839,0.839,0,0,0-.49,1.09,0.826,0.826,0,0,0,.78.55,0.8,0.8,0,0,0,.3-0.06,13.567,13.567,0,0,0,1.61-.71A0.847,0.847,0,0,0,1056.63,2967.31Zm2.2-32.35a14.711,14.711,0,0,0-1.53-.88,0.841,0.841,0,0,0-.76,1.5,14.31,14.31,0,0,1,1.37.79,0.778,0.778,0,0,0,.46.14,0.852,0.852,0,0,0,.7-0.38A0.84,0.84,0,0,0,1058.83,2934.96Zm7.56,15.64a0.867,0.867,0,0,0-.85.87c0,0.52-.02,1.05-0.06,1.56a0.847,0.847,0,0,0,.78.9h0.07a0.83,0.83,0,0,0,.83-0.77c0.05-.56.07-1.12,0.07-1.69v-0.05A0.822,0.822,0,0,0,1066.39,2950.6Zm-30.88.87c0-.52.02-1.06,0.06-1.59a0.848,0.848,0,0,0-.77-0.91,0.863,0.863,0,0,0-.91.78c-0.04.57-.07,1.15-0.07,1.72v0.02A0.845,0.845,0,0,0,1035.51,2951.47Zm30.09,5.73a0.846,0.846,0,0,0-1.07.53q-0.255.765-.57,1.5a0.847,0.847,0,0,0,.43,1.11,0.842,0.842,0,0,0,1.11-.44c0.23-.53.44-1.08,0.63-1.63A0.846,0.846,0,0,0,1065.6,2957.2Zm-28.93-14.63a0.839,0.839,0,0,0-1.11.44c-0.23.53-.44,1.07-0.63,1.63a0.855,0.855,0,0,0,.53,1.07,0.861,0.861,0,0,0,1.07-.53c0.17-.51.37-1.01,0.58-1.49A0.859,0.859,0,0,0,1036.67,2942.57Zm1.98,19.52a0.839,0.839,0,1,0-1.39.94c0.33,0.49.68,0.97,1.04,1.41a0.86,0.86,0,0,0,.65.31,0.839,0.839,0,0,0,.65-1.38C1039.28,2962.96,1038.96,2962.53,1038.65,2962.09Zm-2.56-5.83a0.848,0.848,0,0,0-1.02-.62,0.858,0.858,0,0,0-.62,1.03c0.14,0.56.31,1.12,0.5,1.67a0.834,0.834,0,0,0,.79.57,0.9,0.9,0,0,0,.28-0.04,0.849,0.849,0,0,0,.52-1.07C1036.37,2957.29,1036.22,2956.78,1036.09,2956.26Zm3.36-19.03c-0.41.41-.8,0.85-1.17,1.3a0.842,0.842,0,0,0,.12,1.19,0.8,0.8,0,0,0,.53.19,0.814,0.814,0,0,0,.65-0.31c0.34-.41.7-0.81,1.07-1.18a0.848,0.848,0,0,0-.01-1.19A0.839,0.839,0,0,0,1039.45,2937.23Zm5.03,30.11a11.47,11.47,0,0,1-1.36-.79,0.849,0.849,0,0,0-.93,1.42,15.519,15.519,0,0,0,1.53.88A0.845,0.845,0,0,0,1044.48,2967.34Zm11.01-16.03a14.41,14.41,0,0,0-2.84-1.05c-0.6-.15-1.03-0.27-1.29-0.34v-7.54a4.764,4.764,0,0,1,1.09.33,8.274,8.274,0,0,1,3.15,2.43v1.76a0.83,0.83,0,0,0,1.66,0v-5.21a0.83,0.83,0,1,0-1.66,0v1.11a2.394,2.394,0,0,0-.34-0.52,9.737,9.737,0,0,0-3.9-1.58v-1.21a0.83,0.83,0,0,0-1.66,0v1.09a7.243,7.243,0,0,0-4.81,1.48,5.158,5.158,0,0,0-1.64,3.99,3.868,3.868,0,0,0,.75,2.34,5.59,5.59,0,0,0,2.07,1.64,21.754,21.754,0,0,0,3.63,1.28v8.08a6.548,6.548,0,0,1-1.2-.32,6.652,6.652,0,0,1-3.05-1.9v-1.89a0.83,0.83,0,0,0-1.66,0v5.21a0.83,0.83,0,0,0,1.66,0v-1.11a7.413,7.413,0,0,0,4.25,1.69v1.19a0.83,0.83,0,0,0,1.66,0v-1.09a7.835,7.835,0,0,0,5.08-1.55,5.3,5.3,0,0,0,1.87-4.24,3.959,3.959,0,0,0-.75-2.42A5.609,5.609,0,0,0,1055.49,2951.31Zm-5.79-1.85c-0.29-.09-0.61-0.18-0.95-0.28a14.169,14.169,0,0,1-1.78-.66,4.367,4.367,0,0,1-1.49-1.13,2.369,2.369,0,0,1-.57-1.59,3.14,3.14,0,0,1,1.2-2.5,5.623,5.623,0,0,1,3.59-1.05v7.21h0Zm6.19,9.51c-0.01.01-.03,0.02-0.04,0.03,0.12-.1.24-0.2,0.35-0.31A4.121,4.121,0,0,1,1055.89,2958.97Zm-0.6-.59a6.306,6.306,0,0,1-3.92,1.12v-7.74l1.32,0.37a14.506,14.506,0,0,1,1.9.69,4.367,4.367,0,0,1,1.49,1.13,2.369,2.369,0,0,1,.57,1.59A3.473,3.473,0,0,1,1055.29,2958.38Z"
        transform="translate(-1024 -2926.97)"/>
</svg>
