<?xml version="1.0" encoding="utf-8"?>
<svg version="1.1" id="Layer_1" xmlns="http://www.w3.org/2000/svg" xmlns:xlink="http://www.w3.org/1999/xlink" x="0px" y="0px" viewBox="0 0 13 13" style="enable-background:new 0 0 13 13;" xml:space="preserve">
  <style type="text/css">.st0 { fill: #C2C5CC; }</style>
  <metadata><sfw><slices></slices><sliceSourceBounds  bottomLeftOrigin="true" height="12.5" width="12.4" x="0.3" y="0.3"></sliceSourceBounds></sfw></metadata><path class="st0" d="M8.5,6.5l3.8-3.8c0.5-0.6,0.5-1.4,0-2c-0.6-0.6-1.5-0.6-2,0L6.5,4.4L2.8,0.7c-0.6-0.6-1.5-0.6-2,0c-0.6,0.6-0.6,1.5,0,2l3.8,3.8l-3.8,3.8v0c0,0,0,0,0,0c-0.6,0.6-0.5,1.5,0,2s1.5,0.5,2,0l3.8-3.8l3.8,3.8c0.6,0.5,1.4,0.5,2,0c0.6-0.6,0.6-1.5,0-2L8.5,6.5z"/></svg>
