<svg xmlns="http://www.w3.org/2000/svg" id="Layer_1" data-name="Layer 1" viewBox="0 0 47 47">
  <defs>
    <style>.cls-1{fill:#4c9ce0;}</style>
  </defs>
  <title>student</title>
  <path class="cls-1"
        d="M-118.28,397.29a.79.79,0,0,0,.7.43.78.78,0,0,0,.35-.09,67.16,67.16,0,0,1,6.93-3.08.78.78,0,0,0,.51-1,.78.78,0,0,0-1-.51,67.19,67.19,0,0,0-7.17,3.18A.78.78,0,0,0-118.28,397.29Z"
        transform="translate(145 -375)"/>
  <path class="cls-1"
        d="M-117.58,388.31a.78.78,0,0,0,.35-.09,67.16,67.16,0,0,1,6.93-3.08.78.78,0,0,0,.51-1,.78.78,0,0,0-1-.51,67.19,67.19,0,0,0-7.17,3.18.78.78,0,0,0-.34,1.05A.79.79,0,0,0-117.58,388.31Z"
        transform="translate(145 -375)"/>
  <path class="cls-1"
        d="M-99,386.75c-.43,0-1,.35-1,.78v30.55a1.68,1.68,0,0,1-1.91,1.92H-121v-1.37c2-.4,4.26-1.33,7.19-1.33a41.25,41.25,0,0,1,11.58,1.53c.24.08.1,0,.31-.11s-.07-.38-.07-.64V383.61c0-.37.18-.69-.18-.76a11.46,11.46,0,0,0-1.45-.33.68.68,0,0,0-.8.63c-.08.43,0,.83.47.91s0,.14,0,.19V417c-1-.47-4.62-1.31-9.87-1.31a23.8,23.8,0,0,0-7.7,1.5,16.72,16.72,0,0,0-6.82-1.5A34.83,34.83,0,0,0-139,417.07V384.22a36.76,36.76,0,0,1,10.74-1.39,11.25,11.25,0,0,1,5.26,1.29v30.83c0,.28,1,.54,1.2.68a.71.71,0,0,0,.75,0,86.58,86.58,0,0,1,14.62-7,.7.7,0,0,0,.43-.74V375.78a.72.72,0,0,0-.25-.64.7.7,0,0,0-.68-.09,82.57,82.57,0,0,0-12.65,6.34.78.78,0,0,0-.24,1.08c.23.37.42.48.78.25.06,0,6-3.47,11-5.79v30.41c-5,1.86-10,4.89-13,6.25v-30c0-.3,0-.57-.29-.7a17.62,17.62,0,0,0-7.33-1.65,45,45,0,0,0-12.28,1.6c-.34.1-.1.4-.1.75v34.47c0,.25-.32.48-.12.63s.09.16.26.16,0,0,.11,0a50.73,50.73,0,0,1,12.35-1.54,12,12,0,0,1,5.41,1.29V420h-18.08a1.68,1.68,0,0,1-1.92-1.92V387.53c0-.43-.57-.78-1-.78s-1,.35-1,.78v30.55a3.92,3.92,0,0,0,3.92,3.92h39.17A3.92,3.92,0,0,0-98,418.08V387.53C-98,387.1-98.57,386.75-99,386.75Z"
        transform="translate(145 -375)"/>
  <path class="cls-1"
        d="M-118.28,392.59a.79.79,0,0,0,.7.43.78.78,0,0,0,.35-.09,67.16,67.16,0,0,1,6.93-3.08.78.78,0,0,0,.51-1,.78.78,0,0,0-1-.51,67.19,67.19,0,0,0-7.17,3.18A.78.78,0,0,0-118.28,392.59Z"
        transform="translate(145 -375)"/>
  <path class="cls-1"
        d="M-118.28,402a.79.79,0,0,0,.7.43.78.78,0,0,0,.35-.09,67.16,67.16,0,0,1,6.93-3.08.78.78,0,0,0,.51-1,.78.78,0,0,0-1-.51,67.19,67.19,0,0,0-7.17,3.18A.78.78,0,0,0-118.28,402Z"
        transform="translate(145 -375)"/>
  <path class="cls-1"
        d="M-126,389.53c-4.84-1.14-10.33.31-10.57.37a.78.78,0,0,0-.55,1,.78.78,0,0,0,.76.58l.2,0c.05,0,5.35-1.41,9.8-.36a.79.79,0,0,0,.94-.58A.78.78,0,0,0-126,389.53Z"
        transform="translate(145 -375)"/>
  <path class="cls-1"
        d="M-126,394.23c-4.84-1.13-10.33.31-10.57.37a.78.78,0,0,0-.55,1,.78.78,0,0,0,.76.58l.2,0c.05,0,5.35-1.41,9.8-.36a.79.79,0,0,0,.94-.58A.78.78,0,0,0-126,394.23Z"
        transform="translate(145 -375)"/>
  <path class="cls-1"
        d="M-118.28,406.69a.79.79,0,0,0,.7.43.78.78,0,0,0,.35-.09,67.16,67.16,0,0,1,6.93-3.08.78.78,0,0,0,.51-1,.78.78,0,0,0-1-.51,67.19,67.19,0,0,0-7.17,3.18A.78.78,0,0,0-118.28,406.69Z"
        transform="translate(145 -375)"/>
  <path class="cls-1"
        d="M-126,398.93c-4.84-1.13-10.33.31-10.57.37a.78.78,0,0,0-.55,1,.78.78,0,0,0,.76.58l.2,0c.05,0,5.35-1.41,9.8-.36a.79.79,0,0,0,.94-.58A.78.78,0,0,0-126,398.93Z"
        transform="translate(145 -375)"/>
  <path class="cls-1"
        d="M-126,408.34c-4.84-1.14-10.33.31-10.57.37a.78.78,0,0,0-.55,1,.78.78,0,0,0,.76.58l.2,0c.05,0,5.35-1.41,9.8-.36a.79.79,0,0,0,.94-.58A.78.78,0,0,0-126,408.34Z"
        transform="translate(145 -375)"/>
  <path class="cls-1"
        d="M-126,403.64c-4.84-1.14-10.33.31-10.57.37a.78.78,0,0,0-.55,1,.78.78,0,0,0,.76.58l.2,0c.05,0,5.35-1.41,9.8-.36a.79.79,0,0,0,.94-.58A.78.78,0,0,0-126,403.64Z"
        transform="translate(145 -375)"/>
</svg>
