<svg xmlns="http://www.w3.org/2000/svg" width="29" height="60" viewBox="0 0 29 60">
  <defs>
    <style>.cls-1 {fill: #4c9ce0;fill-rule: evenodd;}</style>
  </defs>
  <path class="cls-1"
        d="M1046,947h-6V936a2.741,2.741,0,0,0-2.59-3h-5.81a2.755,2.755,0,0,0-2.6,3v11h-6c-1.6,0-3,1.819-3,3.419v34.839a2.882,2.882,0,0,0,1.51,2.53,3.383,3.383,0,1,0,6.23,1.825A4.715,4.715,0,0,0,1027,988h15a4.692,4.692,0,0,0-.73,1.613,3.385,3.385,0,1,0,6.23-1.825,2.882,2.882,0,0,0,1.51-2.53V950.419C1049.01,948.819,1047.6,947,1046,947Zm-15.36-11.1a0.964,0.964,0,0,1,.96-0.968h5.81a0.964,0.964,0,0,1,.96.968L1038,937h-7ZM1031,939h7v8h-7v-8Zm-9.07,11.419a0.972,0.972,0,0,1,.97-0.967L1024,949v3h-2Zm0,34.839v-1.936L1022,984h2c-0.03.072-.16,2.282-0.13,2.226h-0.97A0.973,0.973,0,0,1,1021.93,985.258Zm2.42,5.806a1.452,1.452,0,1,1,1.45-1.451A1.452,1.452,0,0,1,1024.35,991.064Zm20.31,0a1.452,1.452,0,1,1,1.45-1.451A1.452,1.452,0,0,1,1044.66,991.064Zm2.42-5.806a0.973,0.973,0,0,1-.97.968L1045,986v-2h2ZM1047,982h-2c-1.07,0-1.79.255-1.79,1.322L1043,986h-17l-0.2-2.678c0-1.067-.73-1.322-1.8-1.322h-2V954h2a2.048,2.048,0,0,0,2-2v-3h17v3a2.048,2.048,0,0,0,2,2h2v28Zm0-30h-2v-3l1.11,0.452a0.972,0.972,0,0,1,.97.967Zm-22,4h2v23h-2V956Zm4,0h2v23h-2V956Zm13,0h2v23h-2V956Zm-4,0h2v23h-2V956Z"
        transform="translate(-1020 -933)"/>
</svg>
