<?xml version="1.0" encoding="utf-8"?>
<!-- Generator: Adobe Illustrator 20.1.0, SVG Export Plug-In . SVG Version: 6.00 Build 0)  -->
<svg version="1.1" id="Layer_1" xmlns="http://www.w3.org/2000/svg" xmlns:xlink="http://www.w3.org/1999/xlink" x="0px" y="0px"
	 width="25px" height="19px" viewBox="0 0 25 19" style="enable-background:new 0 0 25 19;" xml:space="preserve">
<style type="text/css">
	.st0{fill:#4C9CE0;}
</style>
<path class="st0" d="M19,5c1.1,0,2,0.4,2,1.7V16c0.1,1-0.6,1.9-1.5,2c-0.1,0-0.1,0-0.2,0H2.6c-1-0.1-1.7-1-1.6-1.9V6.4
	C0.9,5.8,1.3,5.1,2,5c0.1,0,0.2,0,0.3,0H19 M19.4,4H2.1C0.9,4,0,5,0,6.2c0,0,0,0,0,0v9.9C0,18,1,19,2.1,19h17.3c1.4,0,2.5-1,2.6-2.4
	c0-0.1,0-0.3,0-0.4V6.2C22,5,20.9,4,19.6,4C19.6,4,19.5,4,19.4,4L19.4,4z M6.8,8.4c0.7,0,1.2,0.5,1.2,1.2s-0.5,1.2-1.2,1.2
	s-1.2-0.5-1.2-1.2l0,0C5.6,9,6.2,8.4,6.8,8.4 M6.8,7.5c-1.2,0-2.1,1-2.1,2.1s1,2.1,2.1,2.1S9,10.8,9,9.6l0,0C9,8.5,8,7.5,6.8,7.5
	L6.8,7.5z M6.9,13.5c1.1,0,2.1,0.6,2.5,1.6c0,0,0,0.1,0,0.1c0,0,0,0,0,0h-5c0,0-0.1,0-0.1-0.1c0,0,0,0,0,0
	C4.8,14.1,5.8,13.5,6.9,13.5 M6.9,12.6c-1.6,0-3,1-3.4,2.5c-0.1,0.3,0.1,0.7,0.4,0.9c0.1,0,0.1,0,0.2,0h5.7c0.4,0,0.6-0.4,0.6-0.7
	c0-0.1,0-0.1,0-0.2C9.8,13.7,8.4,12.6,6.9,12.6C6.9,12.6,6.9,12.6,6.9,12.6z M22.7,0H6C4.9,0,4,0.8,4,3h1.1c0,0-0.1-2,1.4-2h16.2
	C23.9,1,24,1.9,24,2.7v9.9c0,0.9,0.1,1.3-0.4,1.3H23v1h0.7c1.3,0,1.3-1,1.3-2.3V2.7C25,1,24.8,0,22.7,0z M18,8.6
	C18,8.8,17.8,9,17.6,9l0,0h-4.1C13.2,9,13,8.8,13,8.6V8.4C13,8.2,13.2,8,13.4,8h4.1C17.8,8,18,8.2,18,8.4V8.6z M18,11.6
	c0,0.2-0.2,0.4-0.4,0.4l0,0h-4.1c-0.2,0-0.4-0.2-0.4-0.4v-0.1c0-0.2,0.2-0.4,0.4-0.4h4.1c0.2,0,0.4,0.2,0.4,0.4v0L18,11.6L18,11.6z
	 M18,14.6c0,0.2-0.2,0.4-0.4,0.4l0,0h-4.1c-0.2,0-0.4-0.2-0.4-0.4v-0.1c0-0.2,0.2-0.4,0.4-0.4h4.1c0.2,0,0.4,0.2,0.4,0.4v0L18,14.6
	L18,14.6z"/>
</svg>
