<svg xmlns="http://www.w3.org/2000/svg" width="25" height="19" viewBox="0 0 25 19">
  <defs>
    <style>
      .cls-1 {
        fill: #b4c3d2;
        fill-rule: evenodd;
      }
    </style>
  </defs>
  <path class="cls-1" d="M19,5c1.051,0,2,.36,2,1.693v9.291A1.781,1.781,0,0,1,19.263,18H2.552A1.756,1.756,0,0,1,1,16.066V6.436A1.211,1.211,0,0,1,2.307,5H19m0.429-1H2.143A2.176,2.176,0,0,0,0,6.243v9.943C0,18,.964,19,2.143,19H19.429A2.505,2.505,0,0,0,22,16.186V6.243A2.314,2.314,0,0,0,19.429,4h0ZM6.835,8.424A1.219,1.219,0,1,1,5.616,9.643,1.22,1.22,0,0,1,6.835,8.424m0-.924A2.143,2.143,0,1,0,8.978,9.643,2.143,2.143,0,0,0,6.835,7.5h0Zm0.022,6a2.767,2.767,0,0,1,2.549,1.6,0.083,0.083,0,0,1-.07.118H4.347a0.083,0.083,0,0,1-.07-0.118,2.814,2.814,0,0,1,2.58-1.6m0-.857a3.574,3.574,0,0,0-3.421,2.54,0.669,0.669,0,0,0,.57.889H9.664a0.669,0.669,0,0,0,.57-0.889,3.52,3.52,0,0,0-3.377-2.54h0ZM22.749,0H6C4.937,0,4,.75,4,3H5.062S4.969,1,6.438,1H22.666C23.923,1,24,1.89,24,2.741v9.943c0,0.863.108,1.316-.41,1.316H23v1h0.714C25,15,25,13.957,25,12.684V2.741C25,1.042,24.76,0,22.749,0ZM18,8.571A0.429,0.429,0,0,1,17.571,9H13.429A0.429,0.429,0,0,1,13,8.571V8.429A0.429,0.429,0,0,1,13.429,8h4.143A0.429,0.429,0,0,1,18,8.429V8.571Zm0,3a0.429,0.429,0,0,1-.429.429H13.429A0.429,0.429,0,0,1,13,11.571V11.429A0.429,0.429,0,0,1,13.429,11h4.143a0.429,0.429,0,0,1,.429.429v0.143Zm0,3a0.429,0.429,0,0,1-.429.429H13.429A0.429,0.429,0,0,1,13,14.571V14.429A0.429,0.429,0,0,1,13.429,14h4.143a0.429,0.429,0,0,1,.429.429v0.143Z"/>
</svg>
